<?xml version="1.0" encoding="UTF-8" standalone="no"?>
<svg
   xmlns:dc="http://purl.org/dc/elements/1.1/"
   xmlns:cc="http://creativecommons.org/ns#"
   xmlns:rdf="http://www.w3.org/1999/02/22-rdf-syntax-ns#"
   xmlns:svg="http://www.w3.org/2000/svg"
   xmlns="http://www.w3.org/2000/svg"
   xmlns:sodipodi="http://sodipodi.sourceforge.net/DTD/sodipodi-0.dtd"
   xmlns:inkscape="http://www.inkscape.org/namespaces/inkscape"
   width="27.333744"
   height="29.358467"
   enable-background="new 0 0 64 64"
   version="1.1"
   viewBox="0 0 3.4165703 3.6697088"
   id="svg26"
   sodipodi:docname="barber-cizor-black.svg"
   inkscape:version="0.92.4 (5da689c313, 2019-01-14)">
  <metadata
     id="metadata32">
    <rdf:RDF>
      <cc:Work
         rdf:about="">
        <dc:format>image/svg+xml</dc:format>
        <dc:type
           rdf:resource="http://purl.org/dc/dcmitype/StillImage" />
        <dc:title></dc:title>
      </cc:Work>
    </rdf:RDF>
  </metadata>
  <defs
     id="defs30" />
  <sodipodi:namedview
     pagecolor="#ffffff"
     bordercolor="#666666"
     borderopacity="1"
     objecttolerance="10"
     gridtolerance="10"
     guidetolerance="10"
     inkscape:pageopacity="0"
     inkscape:pageshadow="2"
     inkscape:window-width="1366"
     inkscape:window-height="705"
     id="namedview28"
     showgrid="false"
     fit-margin-top="0"
     fit-margin-left="0"
     fit-margin-right="0"
     fit-margin-bottom="0"
     inkscape:zoom="5.6583886"
     inkscape:cx="-24.46397"
     inkscape:cy="22.985486"
     inkscape:window-x="-4"
     inkscape:window-y="-4"
     inkscape:window-maximized="1"
     inkscape:current-layer="svg26" />
  <g
     transform="matrix(0.06327084,0,0,0.06327084,-0.44290983,-0.18981252)"
     id="g24"
     style="fill:#000000">
    <path
       d="M 22.864,21.722 25.356,19.23 24.32,18.094 21.941,20.473 Z"
       id="path2"
       inkscape:connector-curvature="0"
       style="fill:#000000" />
    <path
       d="m 20.739,18.847 2.233,-2.232 -1.036,-1.136 -2.12,2.119 z"
       id="path4"
       inkscape:connector-curvature="0"
       style="fill:#000000" />
    <path
       d="m 18.614,15.972 1.973,-1.973 -1.036,-1.136 -1.86,1.86 z"
       id="path6"
       inkscape:connector-curvature="0"
       style="fill:#000000" />
    <path
       d="m 16.489,13.097 1.713,-1.714 -1.036,-1.135 -1.6,1.6 z"
       id="path8"
       inkscape:connector-curvature="0"
       style="fill:#000000" />
    <path
       d="m 30.056,24.385 -0.967,-1.06 -1.761,1.761 c 0.974,0.066 1.926,-0.184 2.728,-0.701 z"
       id="path10"
       inkscape:connector-curvature="0"
       style="fill:#000000" />
    <path
       d="m 25.214,24.372 2.526,-2.527 -1.036,-1.136 -2.632,2.632 c 0.32,0.415 0.711,0.755 1.142,1.031 z"
       id="path12"
       inkscape:connector-curvature="0"
       style="fill:#000000" />
    <path
       d="M 13.433,6.153 12.397,5.017 11.316,6.099 12.239,7.347 Z"
       id="path14"
       inkscape:connector-curvature="0"
       style="fill:#000000" />
    <path
       d="m 26.331,56.275 c -0.821,-0.953 -1.284,-2.193 -1.337,-3.587 -0.052,-1.356 -0.451,-2.684 -1.154,-3.84 -1.122,-1.845 -0.956,-4.417 0.387,-5.982 l 0.919,-1.072 c 0.791,-0.923 1.772,-1.636 2.858,-2.113 l -2.278,-0.38 C 25.225,39.218 24.75,39.055 24.308,38.834 l -2.88,3.538 c -1.207,1.483 -2.992,2.443 -4.896,2.634 -3.809,0.379 -6.941,3.247 -7.448,6.818 -0.366,2.58 0.48,5.093 2.322,6.895 1.842,1.802 4.379,2.59 6.957,2.17 1.294,-0.213 2.532,-0.764 3.58,-1.592 1.202,-0.949 2.917,-0.853 3.988,0.22 l 1.155,1.155 C 27.298,60.884 27.579,61 27.879,61 28.497,61 29,60.497 29,59.879 29,59.552 28.882,59.234 28.668,58.986 Z M 17,58 c -2.761,0 -5,-2.239 -5,-5 0,-2.761 2.239,-5 5,-5 2.761,0 5,2.239 5,5 0,2.761 -2.239,5 -5,5 z"
       id="path16"
       inkscape:connector-curvature="0"
       style="fill:#000000" />
    <path
       d="M 52.982,10.283 C 53.648,9.251 54,8.057 54,6.828 54,5.651 53.653,4.527 53.009,3.573 l -18.499,22.728 4.766,5.227 z"
       id="path18"
       inkscape:connector-curvature="0"
       style="fill:#000000" />
    <path
       d="m 15.818,8.768 -1.036,-1.136 -1.341,1.341 0.923,1.249 z"
       id="path20"
       inkscape:connector-curvature="0"
       style="fill:#000000" />
    <path
       d="m 60.88,60.629 -4.434,-1.773 c -1.432,-0.573 -2.186,-2.141 -1.754,-3.646 0.305,-1.063 0.384,-2.171 0.237,-3.293 -0.473,-3.618 -3.572,-6.521 -7.37,-6.901 -1.954,-0.196 -3.778,-1.188 -5.005,-2.722 l -0.239,-0.3 C 41.467,40.936 41,39.604 41,38.246 v -1.472 c 0,-0.25 -0.093,-0.488 -0.261,-0.673 L 31.412,25.872 c -1.1,0.792 -2.42,1.227 -3.785,1.227 -0.161,0 -0.323,-0.006 -0.485,-0.018 -1.887,-0.141 -3.613,-1.095 -4.738,-2.615 L 8.684,5.901 11.047,3.538 C 10.728,3.198 10.281,3 9.813,3 9.479,3 9.156,3.098 8.877,3.283 L 7.672,4.087 C 7.251,4.367 7,4.837 7,5.343 7,5.602 7.067,5.858 7.194,6.083 L 23.933,35.84 c 0.448,0.797 1.221,1.339 2.121,1.488 l 5.811,0.969 c 3.004,0.5 5.75,2.05 7.733,4.363 l 0.173,0.2 c 1.333,1.556 1.55,4.173 0.486,5.835 -1.034,1.616 -1.442,3.494 -1.179,5.43 0.469,3.456 3.198,6.241 6.636,6.774 C 46.139,60.966 46.572,61 47,61 H 60.808 C 60.914,61 61,60.914 61,60.808 61,60.729 60.953,60.658 60.88,60.629 Z M 32,36 c -1.105,0 -2,-0.895 -2,-2 0,-1.105 0.895,-2 2,-2 1.105,0 2,0.895 2,2 0,1.105 -0.895,2 -2,2 z m 15,22 c -2.761,0 -5,-2.239 -5,-5 0,-2.761 2.239,-5 5,-5 2.761,0 5,2.239 5,5 0,2.761 -2.239,5 -5,5 z"
       id="path22"
       inkscape:connector-curvature="0"
       style="fill:#000000" />
  </g>
</svg>
