<?xml version="1.0" encoding="UTF-8"?>
<svg width="27.334" height="29.358" enable-background="new 0 0 64 64" version="1.1" viewBox="0 0 3.4166 3.6697" xmlns="http://www.w3.org/2000/svg" xmlns:cc="http://creativecommons.org/ns#" xmlns:dc="http://purl.org/dc/elements/1.1/" xmlns:rdf="http://www.w3.org/1999/02/22-rdf-syntax-ns#">
<metadata>
<rdf:RDF>
<cc:Work rdf:about="">
<dc:format>image/svg+xml</dc:format>
<dc:type rdf:resource="http://purl.org/dc/dcmitype/StillImage"/>
<dc:title/>
</cc:Work>
</rdf:RDF>
</metadata>
<g transform="matrix(.063271 0 0 .063271 -.44291 -.18981)" fill="#f9f9f9">
<path d="m22.864 21.722 2.492-2.492-1.036-1.136-2.379 2.379z"/>
<path d="m20.739 18.847 2.233-2.232-1.036-1.136-2.12 2.119z"/>
<path d="m18.614 15.972 1.973-1.973-1.036-1.136-1.86 1.86z"/>
<path d="m16.489 13.097 1.713-1.714-1.036-1.135-1.6 1.6z"/>
<path d="m30.056 24.385-0.967-1.06-1.761 1.761c0.974 0.066 1.926-0.184 2.728-0.701z"/>
<path d="m25.214 24.372 2.526-2.527-1.036-1.136-2.632 2.632c0.32 0.415 0.711 0.755 1.142 1.031z"/>
<path d="m13.433 6.153-1.036-1.136-1.081 1.082 0.923 1.248z"/>
<path d="m26.331 56.275c-0.821-0.953-1.284-2.193-1.337-3.587-0.052-1.356-0.451-2.684-1.154-3.84-1.122-1.845-0.956-4.417 0.387-5.982l0.919-1.072c0.791-0.923 1.772-1.636 2.858-2.113l-2.278-0.38c-0.501-0.083-0.976-0.246-1.418-0.467l-2.88 3.538c-1.207 1.483-2.992 2.443-4.896 2.634-3.809 0.379-6.941 3.247-7.448 6.818-0.366 2.58 0.48 5.093 2.322 6.895s4.379 2.59 6.957 2.17c1.294-0.213 2.532-0.764 3.58-1.592 1.202-0.949 2.917-0.853 3.988 0.22l1.155 1.155c0.212 0.212 0.493 0.328 0.793 0.328 0.618 0 1.121-0.503 1.121-1.121 0-0.327-0.118-0.645-0.332-0.893zm-9.331 1.725c-2.761 0-5-2.239-5-5s2.239-5 5-5 5 2.239 5 5-2.239 5-5 5z"/>
<path d="m52.982 10.283c0.666-1.032 1.018-2.226 1.018-3.455 0-1.177-0.347-2.301-0.991-3.255l-18.499 22.728 4.766 5.227z"/>
<path d="m15.818 8.768-1.036-1.136-1.341 1.341 0.923 1.249z"/>
<path d="m60.88 60.629-4.434-1.773c-1.432-0.573-2.186-2.141-1.754-3.646 0.305-1.063 0.384-2.171 0.237-3.293-0.473-3.618-3.572-6.521-7.37-6.901-1.954-0.196-3.778-1.188-5.005-2.722l-0.239-0.3c-0.848-1.058-1.315-2.39-1.315-3.748v-1.472c0-0.25-0.093-0.488-0.261-0.673l-9.327-10.229c-1.1 0.792-2.42 1.227-3.785 1.227-0.161 0-0.323-6e-3 -0.485-0.018-1.887-0.141-3.613-1.095-4.738-2.615l-13.72-18.565 2.363-2.363c-0.319-0.34-0.766-0.538-1.234-0.538-0.334 0-0.657 0.098-0.936 0.283l-1.205 0.804c-0.421 0.28-0.672 0.75-0.672 1.256 0 0.259 0.067 0.515 0.194 0.74l16.739 29.757c0.448 0.797 1.221 1.339 2.121 1.488l5.811 0.969c3.004 0.5 5.75 2.05 7.733 4.363l0.173 0.2c1.333 1.556 1.55 4.173 0.486 5.835-1.034 1.616-1.442 3.494-1.179 5.43 0.469 3.456 3.198 6.241 6.636 6.774 0.425 0.067 0.858 0.101 1.286 0.101h13.808c0.106 0 0.192-0.086 0.192-0.192 0-0.079-0.047-0.15-0.12-0.179zm-28.88-24.629c-1.105 0-2-0.895-2-2s0.895-2 2-2 2 0.895 2 2-0.895 2-2 2zm15 22c-2.761 0-5-2.239-5-5s2.239-5 5-5 5 2.239 5 5-2.239 5-5 5z"/>
</g>
</svg>
