<?xml version="1.0" encoding="UTF-8" standalone="no"?>
<!-- Generator: Adobe Illustrator 17.1.0, SVG Export Plug-In . SVG Version: 6.00 Build 0)  -->

<svg
   xmlns:dc="http://purl.org/dc/elements/1.1/"
   xmlns:cc="http://creativecommons.org/ns#"
   xmlns:rdf="http://www.w3.org/1999/02/22-rdf-syntax-ns#"
   xmlns:svg="http://www.w3.org/2000/svg"
   xmlns="http://www.w3.org/2000/svg"
   xmlns:sodipodi="http://sodipodi.sourceforge.net/DTD/sodipodi-0.dtd"
   xmlns:inkscape="http://www.inkscape.org/namespaces/inkscape"
   version="1.1"
   id="Capa_1"
   x="0px"
   y="0px"
   viewBox="0 0 46.859854 40.451384"
   xml:space="preserve"
   sodipodi:docname="beard-pigment.svg"
   width="46.859856"
   height="40.451385"
   inkscape:version="0.92.4 (5da689c313, 2019-01-14)"><metadata
   id="metadata39"><rdf:RDF><cc:Work
       rdf:about=""><dc:format>image/svg+xml</dc:format><dc:type
         rdf:resource="http://purl.org/dc/dcmitype/StillImage" /><dc:title></dc:title></cc:Work></rdf:RDF></metadata><defs
   id="defs37" /><sodipodi:namedview
   pagecolor="#ffffff"
   bordercolor="#666666"
   borderopacity="1"
   objecttolerance="10"
   gridtolerance="10"
   guidetolerance="10"
   inkscape:pageopacity="0"
   inkscape:pageshadow="2"
   inkscape:window-width="1366"
   inkscape:window-height="705"
   id="namedview35"
   showgrid="false"
   fit-margin-top="0"
   fit-margin-left="0"
   fit-margin-right="0"
   fit-margin-bottom="0"
   inkscape:zoom="1.2292307"
   inkscape:cx="95.995003"
   inkscape:cy="-42.415617"
   inkscape:window-x="-4"
   inkscape:window-y="-4"
   inkscape:window-maximized="1"
   inkscape:current-layer="Capa_1" />
<path
   d="m 45.883778,0 c -9.77e-4,0 -0.0022,0 -0.0034,0 -0.537454,0.0017 -0.972397,0.437628 -0.973129,0.975082 v 0.120573 c -0.04442,4.242279 -4.182724,11.387837 -5.773853,13.784172 -1.627008,2.449543 -3.805871,3.586691 -5.063349,4.069961 -0.327305,-2.125167 -1.357061,-6.404057 -4.424847,-7.74989 l -0.105197,-0.04613 c -1.730984,-0.757123 -3.904234,-1.174004 -6.118732,-1.174004 -2.214742,0 -4.387991,0.416881 -6.121416,1.17498 l -0.104709,0.04589 c -3.066566,1.345344 -4.095833,5.62399 -4.423138,7.748913 C 11.513047,18.466274 9.3351606,17.328882 7.7086406,14.879827 6.1192201,12.486421 1.9870197,5.342327 1.952605,1.081499 V 0.976303 C 1.952605,0.438604 1.5179063,0.002197 0.98020773,0 0.97898773,0 0.97752273,0 0.97630273,0 0.44055651,0 0.00439336,0.432258 0,0.968736 v 15.779978 c 0,12.974328 10.427155,23.606995 23.243566,23.70194 l 0.177443,7.32e-4 c 7.32e-4,0 4.88e-4,0 0.0012,0 6.255414,0 12.137148,-2.436119 16.560043,-6.859501 4.423627,-4.423627 6.859501,-10.305361 6.859501,-16.560532 l 0.01782,-15.92569 c 2.44e-4,-0.04589 4.88e-4,-0.09153 0,-0.137415 C 46.855687,0.432502 46.419768,0 45.883778,0 Z M 28.961282,26.952051 c -0.428597,0.514512 -1.007056,0.775917 -1.76906,0.798372 -0.05199,0.0015 -0.102512,0.0022 -0.152059,0.0022 h -4.89e-4 c -0.70611,0 -1.034148,-0.156452 -1.100537,-0.290206 -0.249933,-0.504504 0.487908,-2.095145 1.31386,-3.179329 0.22577,-0.295087 0.264334,-0.692686 0.100071,-1.025605 -0.164507,-0.333164 -0.503772,-0.544045 -0.875256,-0.544045 h -6.113606 c -0.371239,0 -0.710016,0.210881 -0.874523,0.543556 -0.164507,0.332675 -0.126187,0.730275 0.09885,1.025362 0.826928,1.084916 1.565013,2.675557 1.315079,3.180061 -0.06639,0.133998 -0.39467,0.290206 -1.101269,0.290206 -0.04955,0 -0.100559,-7.32e-4 -0.152547,-0.0022 -0.762004,-0.02246 -1.340464,-0.283616 -1.76906,-0.798372 -1.180106,-1.417591 -1.02341,-4.420942 -0.863784,-5.457531 0.0029,-0.01879 0.0054,-0.03759 0.0073,-0.05663 0.0032,-0.03149 0.357327,-3.183479 2.154456,-3.791715 1.840818,-0.623613 3.478566,-1.38879 4.242278,-1.763935 0.763713,0.3749 2.40146,1.140322 4.242279,1.763935 1.503994,0.509142 2.065124,2.911334 2.154455,3.791715 0.0017,0.01831 0.0044,0.03759 0.0071,0.05589 0.159869,1.037321 0.316566,4.040916 -0.86354,5.458263 z"
   id="path2"
   inkscape:connector-curvature="0"
   style="stroke-width:0.24407563;fill:#ffffff" />
<g
   id="g4"
   transform="translate(0,-13.128)">
</g>
<g
   id="g6"
   transform="translate(0,-13.128)">
</g>
<g
   id="g8"
   transform="translate(0,-13.128)">
</g>
<g
   id="g10"
   transform="translate(0,-13.128)">
</g>
<g
   id="g12"
   transform="translate(0,-13.128)">
</g>
<g
   id="g14"
   transform="translate(0,-13.128)">
</g>
<g
   id="g16"
   transform="translate(0,-13.128)">
</g>
<g
   id="g18"
   transform="translate(0,-13.128)">
</g>
<g
   id="g20"
   transform="translate(0,-13.128)">
</g>
<g
   id="g22"
   transform="translate(0,-13.128)">
</g>
<g
   id="g24"
   transform="translate(0,-13.128)">
</g>
<g
   id="g26"
   transform="translate(0,-13.128)">
</g>
<g
   id="g28"
   transform="translate(0,-13.128)">
</g>
<g
   id="g30"
   transform="translate(0,-13.128)">
</g>
<g
   id="g32"
   transform="translate(0,-13.128)">
</g>
</svg>