<?xml version="1.0" encoding="UTF-8" standalone="no"?>
<!-- Generator: Adobe Illustrator 19.0.0, SVG Export Plug-In . SVG Version: 6.00 Build 0)  -->

<svg
   xmlns:dc="http://purl.org/dc/elements/1.1/"
   xmlns:cc="http://creativecommons.org/ns#"
   xmlns:rdf="http://www.w3.org/1999/02/22-rdf-syntax-ns#"
   xmlns:svg="http://www.w3.org/2000/svg"
   xmlns="http://www.w3.org/2000/svg"
   xmlns:sodipodi="http://sodipodi.sourceforge.net/DTD/sodipodi-0.dtd"
   xmlns:inkscape="http://www.inkscape.org/namespaces/inkscape"
   version="1.1"
   id="Layer_1"
   x="0px"
   y="0px"
   viewBox="0 0 41.217622 41.217412"
   xml:space="preserve"
   sodipodi:docname="hairdryer.svg"
   width="41.217621"
   height="41.217411"
   inkscape:version="0.92.4 (5da689c313, 2019-01-14)"><metadata
   id="metadata55"><rdf:RDF><cc:Work
       rdf:about=""><dc:format>image/svg+xml</dc:format><dc:type
         rdf:resource="http://purl.org/dc/dcmitype/StillImage" /><dc:title></dc:title></cc:Work></rdf:RDF></metadata><defs
   id="defs53" /><sodipodi:namedview
   pagecolor="#ffffff"
   bordercolor="#666666"
   borderopacity="1"
   objecttolerance="10"
   gridtolerance="10"
   guidetolerance="10"
   inkscape:pageopacity="0"
   inkscape:pageshadow="2"
   inkscape:window-width="1366"
   inkscape:window-height="705"
   id="namedview51"
   showgrid="false"
   fit-margin-top="0"
   fit-margin-left="0"
   fit-margin-right="0"
   fit-margin-bottom="0"
   inkscape:zoom="5.214933"
   inkscape:cx="9.8552107"
   inkscape:cy="23.068324"
   inkscape:window-x="-4"
   inkscape:window-y="-4"
   inkscape:window-maximized="1"
   inkscape:current-layer="Layer_1" />


















<g
   id="g886"
   transform="matrix(0.08050351,0,0,0.08050351,-1.5303833e-5,-1.6100702e-4)"
   style="fill:#ffffff"><path
     id="path2"
     d="M 128.058,400.266 C 89.419,400.266 53.571,381.1 32.143,349.006 15.059,323.415 8.966,292.703 14.982,262.521 21.007,232.347 38.415,206.32 64.006,189.237 103.14,163.125 279.669,104.876 287.17,102.41 l 9.242,-3.038 67.567,101.231 -6.135,7.347 c -4.796,5.734 -117.905,140.885 -165.931,172.928 -19.004,12.689 -41.088,19.388 -63.855,19.388 z m -0.196,-166.391 c -10.112,0 -19.9,2.978 -28.322,8.593 -23.484,15.667 -29.841,47.522 -14.165,71.006 9.506,14.251 25.463,22.758 42.684,22.758 10.112,0 19.9,-2.97 28.331,-8.593 23.475,-15.667 29.824,-47.531 14.157,-71.014 -9.508,-14.243 -25.465,-22.75 -42.685,-22.75 z"
     style="fill:#ffffff"
     inkscape:connector-curvature="0" /><path
     id="path4"
     d="m 170.929,392.731 15.087,-8.798 c 1.229,-0.708 2.466,-1.323 3.721,-1.929 0.734,-0.35 1.485,-0.674 2.185,-1.135 8.235,-5.495 19.209,-14.677 32.614,-27.29 l 8.619,-8.107 112.469,102.144 -51.627,56.858 z"
     style="fill:#ffffff"
     inkscape:connector-curvature="0" /><path
     id="path6"
     d="m 127.998,336.266 c -17.169,0 -33.101,-8.516 -42.615,-22.775 -7.603,-11.375 -10.308,-25.028 -7.637,-38.443 2.671,-13.414 10.419,-24.977 21.803,-32.572 8.431,-5.641 18.253,-8.619 28.373,-8.619 17.169,0 33.101,8.525 42.624,22.784 7.595,11.375 10.3,25.02 7.629,38.434 -2.679,13.414 -10.419,24.977 -21.794,32.563 -8.44,5.641 -18.262,8.628 -28.383,8.628 z"
     style="fill:#ffffff"
     inkscape:connector-curvature="0" /><g
     id="g18"
     style="fill:#ffffff">
	<path
   inkscape:connector-curvature="0"
   id="path8"
   d="M 312.472,100.362 C 306.089,90.796 294.1,86.657 283.177,90.25 c -18.961,6.238 -186.394,61.73 -226.27,88.337 -58.709,39.177 -74.59,118.818 -35.413,177.519 32.41,48.563 92.399,67.243 145.434,50.27 l 108.979,98.97 c 5.026,4.565 11.665,6.946 18.441,6.622 4.676,-0.222 9.156,-1.724 12.979,-4.275 1.724,-1.152 3.319,-2.517 4.736,-4.079 l 34.423,-37.905 c 9.506,-10.462 8.721,-26.658 -1.741,-36.164 l -93.099,-84.548 c 49.894,-50.108 107.349,-118.468 116.019,-128.845 7.279,-8.713 7.945,-21.18 1.647,-30.626 z M 327.533,448.496 293.11,486.401 192.468,395 c 2.15,-1.263 4.446,-2.074 6.545,-3.473 9.54,-6.366 21.376,-16.469 34.278,-28.612 z M 184.805,370.229 C 137.769,401.623 74.179,388.943 42.785,341.898 11.391,294.862 24.071,231.272 71.116,199.878 109.243,174.432 291.174,114.562 291.174,114.562 l 56.841,85.171 c 0.007,0.008 -116.175,139.102 -163.21,170.496 z"
   style="fill:#ffffff" />
	<path
   inkscape:connector-curvature="0"
   id="path10"
   d="m 92.431,231.827 c -29.355,19.593 -37.291,59.409 -17.707,88.764 19.593,29.355 59.409,37.299 88.764,17.707 29.355,-19.592 37.291,-59.409 17.707,-88.764 -19.593,-29.355 -59.409,-37.3 -88.764,-17.707 z m 56.849,85.171 c -17.638,11.776 -41.481,7.014 -53.257,-10.624 -11.776,-17.638 -7.014,-41.481 10.624,-53.257 17.638,-11.776 41.481,-7.014 53.257,10.624 11.768,17.639 7.015,41.481 -10.624,53.257 z"
   style="fill:#ffffff" />
	<path
   inkscape:connector-curvature="0"
   id="path12"
   d="m 368.485,50.638 c 7.424,-4.958 16.316,-4.958 26.624,-4.966 12.638,0 26.948,-0.017 40.823,-9.267 14.097,-9.412 21.197,-24.277 24.866,-36.403 h -27.179 c -2.594,5.734 -6.34,11.392 -11.895,15.104 -7.424,4.958 -16.316,4.958 -26.624,4.966 -12.638,0 -26.948,0.017 -40.823,9.267 -18.927,12.629 -25.37,35.14 -27.563,47.462 h 26.129 c 2.022,-8.413 6.349,-19.959 15.642,-26.163 z"
   style="fill:#ffffff" />
	<path
   inkscape:connector-curvature="0"
   id="path14"
   d="m 447.324,66.305 c -7.424,4.958 -16.316,4.958 -26.624,4.966 -12.638,0 -26.948,0.017 -40.823,9.267 -18.927,12.629 -25.37,35.14 -27.563,47.462 h 26.129 c 2.022,-8.414 6.349,-19.959 15.65,-26.163 7.424,-4.958 16.316,-4.958 26.624,-4.966 12.638,0 26.948,-0.017 40.823,-9.267 14.089,-9.412 21.188,-24.277 24.858,-36.403 h -27.179 c -2.594,5.735 -6.34,11.392 -11.895,15.104 z"
   style="fill:#ffffff" />
	<path
   inkscape:connector-curvature="0"
   id="path16"
   d="m 484.819,102.401 c -2.594,5.734 -6.34,11.392 -11.895,15.104 -7.424,4.958 -16.316,4.958 -26.624,4.966 -12.638,0 -26.948,0.017 -40.823,9.267 -18.927,12.629 -25.37,35.14 -27.563,47.462 h 26.129 c 2.022,-8.414 6.349,-19.959 15.65,-26.163 7.424,-4.958 16.316,-4.958 26.624,-4.966 12.638,0 26.948,-0.017 40.823,-9.267 14.089,-9.412 21.188,-24.277 24.858,-36.403 z"
   style="fill:#ffffff" />
</g><g
     id="g20"
     style="fill:#ffffff">
</g><g
     id="g22"
     style="fill:#ffffff">
</g><g
     id="g24"
     style="fill:#ffffff">
</g><g
     id="g26"
     style="fill:#ffffff">
</g><g
     id="g28"
     style="fill:#ffffff">
</g><g
     id="g30"
     style="fill:#ffffff">
</g><g
     id="g32"
     style="fill:#ffffff">
</g><g
     id="g34"
     style="fill:#ffffff">
</g><g
     id="g36"
     style="fill:#ffffff">
</g><g
     id="g38"
     style="fill:#ffffff">
</g><g
     id="g40"
     style="fill:#ffffff">
</g><g
     id="g42"
     style="fill:#ffffff">
</g><g
     id="g44"
     style="fill:#ffffff">
</g><g
     id="g46"
     style="fill:#ffffff">
</g><g
     id="g48"
     style="fill:#ffffff">
</g></g>
</svg>