<?xml version="1.0" encoding="UTF-8" standalone="no"?>
<!-- Generator: Adobe Illustrator 19.0.0, SVG Export Plug-In . SVG Version: 6.00 Build 0)  -->

<svg
   xmlns:dc="http://purl.org/dc/elements/1.1/"
   xmlns:cc="http://creativecommons.org/ns#"
   xmlns:rdf="http://www.w3.org/1999/02/22-rdf-syntax-ns#"
   xmlns:svg="http://www.w3.org/2000/svg"
   xmlns="http://www.w3.org/2000/svg"
   xmlns:sodipodi="http://sodipodi.sourceforge.net/DTD/sodipodi-0.dtd"
   xmlns:inkscape="http://www.inkscape.org/namespaces/inkscape"
   version="1.1"
   id="Layer_1"
   x="0px"
   y="0px"
   viewBox="0 0 41.798405 40.717251"
   xml:space="preserve"
   sodipodi:docname="hair-pigment.svg"
   width="41.798405"
   height="40.717251"
   inkscape:version="0.92.4 (5da689c313, 2019-01-14)"><metadata
   id="metadata54"><rdf:RDF><cc:Work
       rdf:about=""><dc:format>image/svg+xml</dc:format><dc:type
         rdf:resource="http://purl.org/dc/dcmitype/StillImage" /><dc:title></dc:title></cc:Work></rdf:RDF></metadata><defs
   id="defs52" /><sodipodi:namedview
   pagecolor="#ffffff"
   bordercolor="#666666"
   borderopacity="1"
   objecttolerance="10"
   gridtolerance="10"
   guidetolerance="10"
   inkscape:pageopacity="0"
   inkscape:pageshadow="2"
   inkscape:window-width="1366"
   inkscape:window-height="705"
   id="namedview50"
   showgrid="false"
   fit-margin-top="0"
   fit-margin-left="0"
   fit-margin-right="0"
   fit-margin-bottom="0"
   inkscape:zoom="4.1055081"
   inkscape:cx="74.030189"
   inkscape:cy="-3.1684944"
   inkscape:window-x="-4"
   inkscape:window-y="-4"
   inkscape:window-maximized="1"
   inkscape:current-layer="Layer_1" />
<g
   id="XMLID_468_"
   transform="matrix(0.09089179,0,0,0.09089179,2.4269406e-5,-0.54053369)"
   style="fill:#ffffff">
	<g
   id="g16"
   style="fill:#ffffff">
		<g
   id="g14"
   style="fill:#ffffff">
			<path
   d="M 458.838,393.671 421.91,286.441 c -0.073,-0.213 -0.163,-0.416 -0.243,-0.625 -8.013,11.689 -17.881,22.597 -28.855,31.788 l 30.419,88.329 c 3.386,9.833 14.1,15.059 23.935,11.672 9.833,-3.385 15.059,-14.101 11.672,-23.934 z"
   id="path2"
   inkscape:connector-curvature="0"
   style="fill:#ffffff" />
			<path
   d="m 422.698,421.314 h -56.12 v -65.199 l 8.869,-0.013 c 9.004,-0.013 16.294,-7.322 16.28,-16.327 -0.009,-6.327 -3.628,-11.795 -8.899,-14.49 -7.334,5.181 -15.785,10.189 -25.42,14.513 -20.428,9.167 -43.171,13.922 -67.958,13.735 -2.741,-0.022 -5.174,-1.764 -6.078,-4.352 L 250.476,255.04 223.843,196.175 c -3.711,-8.204 -13.369,-11.845 -21.575,-8.134 -8.203,3.712 -11.845,13.371 -8.133,21.575 l 62.007,137.051 c 2.64,5.836 8.451,9.583 14.854,9.583 0.008,0 0.015,0 0.023,0 l 24.13,-0.034 v 65.098 h -56.12 c -9.005,0 -16.304,7.299 -16.304,16.304 0,9.005 7.3,16.304 16.304,16.304 h 183.668 c 9.005,0 16.304,-7.299 16.304,-16.304 0.001,-9.005 -7.299,-16.304 -16.303,-16.304 z"
   id="path4"
   inkscape:connector-curvature="0"
   style="fill:#ffffff" />
			<path
   d="m 242.317,179.26 c -1.836,4.324 -1.783,9.261 0.145,13.545 0.077,0.172 0.147,0.346 0.208,0.524 l 51.434,147.193 c 37.421,-0.667 69.643,-13.337 95.822,-37.685 15.584,-14.494 24.422,-29.181 27.7,-35.25 -9.36,-15.815 -54.728,-89.665 -97.155,-109.956 -4.839,-2.314 -10.344,-3.488 -16.364,-3.488 -4.992,0 -10.267,0.865 -14.469,2.373 l -37.473,13.444 c -4.42,1.585 -8.01,4.976 -9.848,9.3 z"
   id="path6"
   inkscape:connector-curvature="0"
   style="fill:#ffffff" />
			<path
   d="m 220.828,143.06 c 3.982,-0.958 7.551,-2.97 10.398,-5.727 9.382,6.121 21.601,7.636 32.848,2.734 15.134,-6.597 23.589,-23.328 19.873,-39.414 -1.333,-5.769 -3.983,-10.787 -7.515,-14.892 9.469,-24.287 -0.023,-30.321 -7.6,-31.611 -2.424,-0.413 -4.206,2.012 -3.329,4.31 2.229,5.846 -6.905,11.578 -14.647,15.255 -0.29,-0.006 -0.579,-0.008 -0.87,-0.007 -1.125,-1.865 -7.607,-10.879 -23.989,-3.122 -9.531,4.513 -13.034,17.205 -14.211,28.264 -8.81,1.47 -15.894,8.037 -18.111,16.571 13.785,2.3 25.011,13.25 27.153,27.639 z"
   id="path8"
   inkscape:connector-curvature="0"
   style="fill:#ffffff" />
			<circle
   cx="106.649"
   cy="42.471001"
   r="36.523998"
   id="circle10"
   style="fill:#ffffff" />
			<path
   d="m 111.745,174.317 78.456,-8.745 c 9.743,-1.086 16.76,-9.865 15.674,-19.607 -1.087,-9.743 -9.867,-16.754 -19.606,-15.675 l -71.617,7.983 -38.072,-27.673 34.556,12.757 14.979,-1.67 c -0.92,-12.931 -11.152,-23.615 -24.473,-24.71 L 54.135,93.072 c -14.713,-1.209 -27.62,9.737 -28.83,24.45 l -8.441,136.91 11.195,72.997 -27.296,99.555 c -3.11,11.345 3.565,23.064 14.911,26.174 11.339,3.109 23.062,-3.562 26.174,-14.91 l 28.494,-103.93 c 0.791,-2.885 0.966,-5.904 0.512,-8.861 l -10.343,-67.437 8.287,0.681 25.409,69.276 -21.226,100.227 c -2.802,13.23 7.288,25.717 20.859,25.717 9.848,-10e-4 18.694,-6.871 20.817,-16.891 l 22.495,-106.221 c 0.829,-3.917 0.538,-7.989 -0.841,-11.748 l -21.326,-58.144 5.944,-72.315 c -7.891,0.88 -6.19,0.69 -14.176,1.58 -6.487,0.723 -12.578,-2.077 -16.354,-6.841 L 55.71,139.318 99.344,171.034 c 3.601,2.619 8.029,3.77 12.401,3.283 z"
   id="path12"
   inkscape:connector-curvature="0"
   style="fill:#ffffff" />
		</g>
	</g>
</g>
<g
   id="g19"
   transform="translate(2.6701428e-4,-5.9470024)">
</g>
<g
   id="g21"
   transform="translate(2.6701428e-4,-5.9470024)">
</g>
<g
   id="g23"
   transform="translate(2.6701428e-4,-5.9470024)">
</g>
<g
   id="g25"
   transform="translate(2.6701428e-4,-5.9470024)">
</g>
<g
   id="g27"
   transform="translate(2.6701428e-4,-5.9470024)">
</g>
<g
   id="g29"
   transform="translate(2.6701428e-4,-5.9470024)">
</g>
<g
   id="g31"
   transform="translate(2.6701428e-4,-5.9470024)">
</g>
<g
   id="g33"
   transform="translate(2.6701428e-4,-5.9470024)">
</g>
<g
   id="g35"
   transform="translate(2.6701428e-4,-5.9470024)">
</g>
<g
   id="g37"
   transform="translate(2.6701428e-4,-5.9470024)">
</g>
<g
   id="g39"
   transform="translate(2.6701428e-4,-5.9470024)">
</g>
<g
   id="g41"
   transform="translate(2.6701428e-4,-5.9470024)">
</g>
<g
   id="g43"
   transform="translate(2.6701428e-4,-5.9470024)">
</g>
<g
   id="g45"
   transform="translate(2.6701428e-4,-5.9470024)">
</g>
<g
   id="g47"
   transform="translate(2.6701428e-4,-5.9470024)">
</g>
</svg>