<?xml version="1.0" encoding="UTF-8" standalone="no"?>
<svg
   xmlns:dc="http://purl.org/dc/elements/1.1/"
   xmlns:cc="http://creativecommons.org/ns#"
   xmlns:rdf="http://www.w3.org/1999/02/22-rdf-syntax-ns#"
   xmlns:svg="http://www.w3.org/2000/svg"
   xmlns="http://www.w3.org/2000/svg"
   xmlns:sodipodi="http://sodipodi.sourceforge.net/DTD/sodipodi-0.dtd"
   xmlns:inkscape="http://www.inkscape.org/namespaces/inkscape"
   version="1.1"
   viewBox="0 0 181.54006 184.32244"
   xml:space="preserve"
   id="svg118"
   sodipodi:docname="logo-saloon.svg"
   width="181.54005"
   height="184.32245"
   inkscape:version="0.92.4 (5da689c313, 2019-01-14)"><metadata
   id="metadata124"><rdf:RDF><cc:Work
       rdf:about=""><dc:format>image/svg+xml</dc:format><dc:type
         rdf:resource="http://purl.org/dc/dcmitype/StillImage" /><dc:title></dc:title></cc:Work></rdf:RDF></metadata><defs
   id="defs122">



</defs><sodipodi:namedview
   pagecolor="#ffffff"
   bordercolor="#666666"
   borderopacity="1"
   objecttolerance="10"
   gridtolerance="10"
   guidetolerance="10"
   inkscape:pageopacity="0"
   inkscape:pageshadow="2"
   inkscape:window-width="1366"
   inkscape:window-height="705"
   id="namedview120"
   showgrid="false"
   fit-margin-top="0"
   fit-margin-left="0"
   fit-margin-right="0"
   fit-margin-bottom="0"
   inkscape:zoom="1.2803819"
   inkscape:cx="90.770011"
   inkscape:cy="92.161996"
   inkscape:window-x="-4"
   inkscape:window-y="-4"
   inkscape:window-maximized="1"
   inkscape:current-layer="svg118" />
<style
   type="text/css"
   id="style2">
	.st0{fill:#231F20;}
</style><polygon
   style="display:none;fill:#000000"
   id="polygon4"
   display="none"
   points="150.48,98.12 150.48,104.16 151.33,104.16 151.33,97.04 150.59,97.04 148.68,98.59 149.19,99.2 150.46,98.12 "
   transform="translate(-9.2299859,-11.837551)"
   class="st0" /><path
   style="display:none;fill:#000000"
   inkscape:connector-curvature="0"
   id="path6"
   display="none"
   d="m 146.95001,92.322449 1.89,-3.01 c 0.38,-0.61 0.67,-1.18 0.67,-2 0,-1.39 -1.04,-2.23 -2.38,-2.23 -1.35,0 -2.38,0.84 -2.38,2.23 0,1.33 0.91,2.23 2.15,2.23 0.29,0 0.69,-0.06 0.96,-0.21 l 0.02,0.02 -1.91,2.97 z m 0.18,-3.5 c -0.85,0 -1.54,-0.58 -1.54,-1.51 0,-0.92 0.68,-1.51 1.54,-1.51 0.85,0 1.54,0.58 1.54,1.51 0,0.92 -0.68,1.51 -1.54,1.51 z"
   class="st0" /><path
   style="display:none;fill:#000000"
   inkscape:connector-curvature="0"
   id="path8"
   display="none"
   d="m 150.72001,90.362449 c 0,1.3 1.01,2.08 2.27,2.08 1.27,0 2.27,-0.78 2.27,-2.08 0,-0.89 -0.55,-1.65 -1.41,-1.83 v -0.02 c 0.72,-0.19 1.17,-0.89 1.17,-1.57 0,-1.12 -0.88,-1.86 -2.03,-1.86 -1.15,0 -2.03,0.74 -2.03,1.86 0,0.67 0.44,1.38 1.17,1.57 v 0.02 c -0.86,0.18 -1.41,0.93 -1.41,1.83 z m 1.08,-3.38 c 0,-0.67 0.48,-1.18 1.19,-1.18 0.7,0 1.19,0.5 1.19,1.18 0,0.68 -0.48,1.18 -1.19,1.18 -0.7,-0.01 -1.19,-0.51 -1.19,-1.18 z m 1.19,1.9 c 0.79,0 1.43,0.58 1.43,1.42 0,0.83 -0.63,1.42 -1.43,1.42 -0.79,0 -1.43,-0.58 -1.43,-1.42 0,-0.84 0.64,-1.42 1.43,-1.42 z"
   class="st0" /><path
   style="display:none;fill:#000000"
   inkscape:connector-curvature="0"
   id="path10"
   display="none"
   d="m 158.67001,92.322449 1.89,-3.01 c 0.38,-0.61 0.67,-1.18 0.67,-2 0,-1.39 -1.04,-2.23 -2.38,-2.23 -1.35,0 -2.38,0.84 -2.38,2.23 0,1.33 0.91,2.23 2.15,2.23 0.29,0 0.69,-0.06 0.96,-0.21 l 0.02,0.02 -1.91,2.97 z m 0.18,-3.5 c -0.85,0 -1.54,-0.58 -1.54,-1.51 0,-0.92 0.68,-1.51 1.54,-1.51 0.85,0 1.54,0.58 1.54,1.51 0,0.92 -0.69,1.51 -1.54,1.51 z"
   class="st0" /><path
   style="display:none;fill:#000000"
   inkscape:connector-curvature="0"
   id="path12"
   display="none"
   d="m 47.830014,24.832449 -4.02,-6.25 c 0.23,-0.13 0.44,-0.27 0.66,-0.41 1.35,-0.87 2.72,-2.46 3.05,-4.24 0.27,-1.5 -0.01,-3.13 -1.18,-4.9600001 -0.91,-1.42 -2.24,-2.51 -3.8,-2.75 -1.74,-0.3 -3.45,0.39 -5.4,1.64 -1.26,0.81 -2.41,1.72 -3.21,2.5200001 l 10.65,16.54 z m -5.17,-9.23 c -0.2,0.13 -0.38,0.23 -0.57,0.31 l -3.35,-5.2 c 0.15,-0.2 0.42,-0.45 0.73,-0.64 1.51,-0.9700001 2.86,-0.2000001 3.8,1.26 1.01,1.57 1.04,3.21 -0.61,4.27 z"
   class="st0" /><path
   style="display:none;fill:#000000"
   inkscape:connector-curvature="0"
   id="path14"
   display="none"
   d="m 57.850014,19.402449 -0.98,-4.54 3.31,-1.41 2.57,3.86 3.48,-1.48 -11.4,-16.8500001 -4.28,1.82000002 3.83,20.07000008 z m -3.8,-16.0900001 c 0.7,1.14 1.73,2.88 2.38,3.92 l 2.25,3.5900001 -2.62,1.11 -0.96,-4.1300001 c -0.26,-1.14 -0.8,-3.16 -1.12,-4.46 z"
   class="st0" /><path
   style="display:none;fill:#000000"
   inkscape:connector-curvature="0"
   id="path16"
   display="none"
   d="m 108.44001,9.2525489 3.5,0.8200001 -0.22,4.64 3.68,0.87 0.8,-20.3300001 -4.53,-1.07 -8.8,18.4400001 3.67,0.86 z m 2.76,-6.73 c 0.47,-1.08 1.23,-3.01999998 1.74,-4.26 l 0.07,0.02 c -0.11,1.33000002 -0.31,3.34 -0.4,4.57 l -0.31,4.22 -2.77,-0.65 z"
   class="st0" /><path
   style="display:none;fill:#000000"
   inkscape:connector-curvature="0"
   id="path18"
   display="none"
   d="m 136.67001,3.0325489 -3.88,-1.76 -4.76,7.22 c -1.25,1.9000001 -2.54,3.9500001 -3.75,6.0000001 l -0.07,-0.03 c 0.72,-2.24 1.36,-4.6300001 1.93,-6.7300001 l 2.26,-8.43999998 -3.91,-1.77000002 -4.17,20.0300001 3.96,1.8 z"
   class="st0" /><polygon
   style="display:none;fill:#000000"
   id="polygon20"
   display="none"
   points="156.42,25.54 158.22,22.69 150.89,18.04 140.19,34.89 147.8,39.73 149.61,36.89 145.28,34.14 148.18,29.57 152.02,32.01 153.75,29.28 149.91,26.84 152.37,22.97 "
   transform="translate(-9.2299859,-11.837551)"
   class="st0" /><path
   style="display:none;fill:#000000"
   inkscape:connector-curvature="0"
   id="path22"
   display="none"
   d="m 73.330014,14.182449 -1.83,-7.7500001 0.57,-0.13 c 1.25,-0.3 2.03,0.24 2.93,2.58 0.8,2.0800001 1.7,3.9400001 2.07,4.4200001 l 3.95,-0.93 c -0.51,-0.63 -1.6,-2.9100001 -2.49,-4.9800001 -0.87,-2.01 -1.82,-3.07 -3.27,-3.3 l -0.01,-0.06 c 1.76,-1.38 2.34,-3.47999998 1.85,-5.56 -0.39,-1.67 -1.06,-2.88 -2.5,-3.68 -1.52,-0.85 -3.46,-0.71 -5.52,-0.22 -1.44,0.34 -2.91,0.82 -4.04,1.35 l 4.52,19.1500001 z m -2.99,-16.7800001 c 1.7,-0.35 2.63,0.66 3.03,2.33000002 0.4,1.68999998 -0.22,3.24999998 -1.86,3.62999998 l -0.69,0.16 -1.37,-5.79 c 0.19,-0.13 0.55,-0.25 0.89,-0.33 z"
   class="st0" /><path
   style="display:none;fill:#000000"
   inkscape:connector-curvature="0"
   id="path24"
   display="none"
   d="m 87.870014,12.162449 -0.18,-6.6300001 0.86,-1.65 3.13,8.1800001 4.24,-0.11 -4.84,-11.15000008 4.25,-8.81000002 -4.28,0.11 -2.48,6.46 c -0.32,0.88000002 -0.6,1.76000002 -0.9,2.62 h -0.08 l -0.24,-8.99 -3.87,0.1 0.53,19.9600001 z"
   class="st0" /><g
   id="g1068"><path
     style="fill:#f9f9f9"
     inkscape:connector-curvature="0"
     id="path28"
     d="m 175.97001,57.212449 c -3.72,-9.94 -9.29,-18.96 -16.66,-27.03 -0.69,-0.75 -1.86,-0.81 -2.61,-0.12 -0.75,0.69 -0.81,1.86 -0.12,2.61 7.07,7.74 12.37,16.34 15.92,25.83 3.55,9.49 5.35,19.89 5.35,31.25 -0.01,18.980001 -5.3,35.700001 -15.54,49.980001 -0.6,0.83 -0.4,1.98 0.42,2.58 0.83,0.6 1.98,0.4 2.58,-0.42 10.69,-14.9 16.24,-32.47 16.23,-52.130001 0.01,-11.75 -1.85,-22.6 -5.57,-32.55 z"
     class="st0" /><path
     style="fill:#f9f9f9"
     inkscape:connector-curvature="0"
     id="path30"
     d="m 18.200014,138.21245 c -9.4499999,-13.95 -14.4999999,-29.44 -14.5099999,-47.570001 0,-11.37 1.97,-21.87 5.71,-31.47 3.7399999,-9.6 9.2499999,-18.3 16.3599999,-26.06 0.69,-0.75 0.64,-1.92 -0.11,-2.61 -0.75,-0.69 -1.92,-0.64 -2.61,0.11 -7.4,8.07 -13.1699999,17.17 -17.0799999,27.21 -3.91,10.04 -5.96,21.01 -5.96,32.81 -0.01,18.820001 5.31,35.150001 15.1499999,49.640001 0.57,0.85 1.72,1.07 2.57,0.49 0.83,-0.56 1.05,-1.7 0.48,-2.55 z"
     class="st0" /><circle
     style="fill:#f9f9f9"
     id="circle32"
     r="1.8099999"
     cy="23.622448"
     cx="151.48003"
     class="st0" /><path
     style="fill:#f9f9f9"
     inkscape:connector-curvature="0"
     id="path34"
     d="m 23.120014,145.56245 c -1,0 -1.81,0.81 -1.81,1.81 0,1 0.81,1.81 1.81,1.81 1,0 1.81,-0.81 1.81,-1.81 0,-1 -0.81,-1.81 -1.81,-1.81 z"
     class="st0" /><path
     style="fill:#f9f9f9"
     inkscape:connector-curvature="0"
     id="path36"
     d="m 31.270014,25.212449 c 1,0 1.81,-0.81 1.81,-1.81 0,-1 -0.81,-1.81 -1.81,-1.81 -1,0 -1.81,0.81 -1.81,1.81 0,1 0.81,1.81 1.81,1.81 z"
     class="st0" /><path
     style="fill:#f9f9f9"
     inkscape:connector-curvature="0"
     id="path38"
     d="m 157.98001,148.44245 c -1,0 -1.81,0.81 -1.81,1.81 0,1 0.81,1.81 1.81,1.81 1,0 1.81,-0.81 1.81,-1.81 0,-1 -0.8,-1.81 -1.81,-1.81 z"
     class="st0" /><polygon
     transform="translate(-9.2299859,-11.837551)"
     style="fill:#f9f9f9"
     id="polygon40"
     points="32.77,97.82 36.39,97.82 36.39,97.04 31.92,97.04 31.92,104.16 36.58,104.16 36.58,103.37 32.77,103.37 32.77,100.84 36.15,100.84 36.15,100.05 32.77,100.05 "
     class="st0" /><path
     style="fill:#f9f9f9"
     inkscape:connector-curvature="0"
     id="path42"
     d="m 30.930014,91.712449 c -0.61,0 -1.22,-0.27 -1.52,-0.79 l -0.72,0.59 c 0.48,0.71 1.37,0.99 2.19,0.99 1.29,0 2.5,-0.66 2.5,-2.08 0,-1.4 -1.03,-1.76 -2.13,-2.11 -1.14,-0.36 -1.5,-0.65 -1.5,-1.31 0,-0.84 0.77,-1.2 1.52,-1.2 0.51,0 1.02,0.2 1.3,0.65 l 0.69,-0.6 c -0.52,-0.61 -1.2,-0.83 -1.99,-0.83 -1.25,0 -2.42,0.68 -2.42,2.05 0,1.19 0.76,1.63 1.77,1.96 1.27,0.42 1.86,0.57 1.86,1.45 0,0.81 -0.82,1.23 -1.55,1.23 z"
     class="st0" /><polygon
     transform="translate(-9.2299859,-11.837551)"
     style="fill:#f9f9f9"
     id="polygon44"
     points="46.13,104.16 46.98,104.16 46.98,97.82 49.33,97.82 49.33,97.04 43.78,97.04 43.78,97.82 46.13,97.82 "
     class="st0" /><path
     style="fill:#f9f9f9"
     inkscape:connector-curvature="0"
     id="path46"
     d="m 40.430014,91.772449 c 0,0.33 0.29,0.6 0.6,0.6 0.31,0 0.6,-0.27 0.6,-0.6 0,-0.33 -0.27,-0.6 -0.6,-0.6 -0.33,0 -0.6,0.27 -0.6,0.6 z"
     class="st0" /><path
     style="fill:#f9f9f9"
     inkscape:connector-curvature="0"
     id="path48"
     d="m 39.440014,145.32245 c 2.48,2.24 4.46,3.07 6.22,2.91 1.34,-0.1 2.61,-0.7 3.72,-1.93 1.47,-1.63 1.85,-3.86 0.58,-5.91 l 0.07,-0.08 c 2.05,0.68 3.88,0.02 5.07,-1.29 0.94,-1.04 1.51,-2.33 1.32,-3.71 -0.23,-1.79 -1.43,-3.2 -2.8,-4.44 -1.25,-1.13 -2.49,-2.09 -3.53,-2.68 l -13.16,14.53 c 0.55,0.71 1.41,1.61 2.51,2.6 z m 11.74,-12.57 c 0.24,0.1 0.53,0.31 0.85,0.6 1.17,1.06 0.93,2.37 -0.06,3.45 -1.09,1.2 -2.67,1.36 -3.71,0.42 l -0.62,-0.56 z m -5.48,6.05 0.62,0.56 c 1.14,1.04 1.45,2.72 0.1,4.21 -1.36,1.5 -2.97,1.35 -4.14,0.29 -0.25,-0.23 -0.45,-0.42 -0.59,-0.63 z"
     class="st0" /><path
     style="fill:#f9f9f9"
     inkscape:connector-curvature="0"
     id="path50"
     d="m 96.460014,154.88245 -0.01,-0.11 c 1.92,-0.98 2.74,-2.74 2.65,-4.51 -0.08,-1.4 -0.59,-2.71 -1.71,-3.55 -1.44,-1.09 -3.28,-1.23 -5.12,-1.13 -1.68,0.09 -3.23,0.3 -4.39,0.63 l 1.07,19.58 c 0.89,0.09 2.14,0.11 3.61,0.03 3.34,-0.18 5.32,-1.01 6.44,-2.37 0.87,-1.03 1.339996,-2.35 1.249996,-4 -0.12,-2.2 -1.449996,-4.04 -3.789996,-4.57 z m -4.57,-6.25 c 0.24,-0.1 0.59,-0.16 1.02,-0.18 1.58,-0.09 2.33,1.01 2.41,2.47 0.09,1.62 -0.91,2.86 -2.31,2.93 l -0.83,0.05 z m 1.63,14.14 c -0.34,0.02 -0.62,0.02 -0.87,-0.02 l -0.33,-5.97 0.84,-0.05 c 1.54,-0.08 2.95,0.88 3.06,2.89 0.12,2.02 -1.12,3.06 -2.7,3.15 z"
     class="st0" /><polygon
     transform="translate(-9.2299859,-11.837551)"
     style="fill:#f9f9f9"
     id="polygon52"
     points="126.1,173 125.1,169.78 120.2,171.31 118.58,166.15 122.93,164.79 121.97,161.71 117.62,163.06 116.25,158.68 120.83,157.25 119.83,154.04 111.54,156.62 117.49,175.69 "
     class="st0" /><path
     style="fill:#f9f9f9"
     inkscape:connector-curvature="0"
     id="path54"
     d="m 127.26001,151.01245 c 1.38,1.75 2.79,3.26 3.29,3.61 l 3.5,-2.05 c -0.67,-0.45 -2.39,-2.31 -3.84,-4.02 -1.42,-1.67 -2.65,-2.4 -4.09,-2.19 l -0.03,-0.05 c 1.28,-1.84 1.21,-4.02 0.13,-5.86 -0.87,-1.48 -1.87,-2.44 -3.47,-2.78 -1.7,-0.36 -3.51,0.34 -5.34,1.42 -1.28,0.75 -2.53,1.64 -3.46,2.48 l 9.96,16.96 3.33,-1.96 -4.03,-6.87 0.5,-0.29 c 1.1,-0.65 2,-0.37 3.55,1.6 z m -4.97,-4.24 -0.61,0.36 -3.01,-5.13 c 0.14,-0.19 0.45,-0.4 0.75,-0.58 1.52,-0.84 2.71,-0.14 3.58,1.33 0.87,1.49 0.74,3.16 -0.71,4.02 z"
     class="st0" /><path
     style="fill:#f9f9f9"
     inkscape:connector-curvature="0"
     id="path56"
     d="m 136.18001,145.66245 1.82,2.87 c 0.76,-0.15 2.19,-0.88 3.39,-1.96 2.9,-2.6 3.32,-6.18 0.87,-8.91 -1.4,-1.56 -3.46,-2.42 -6.5,-1.84 -2.46,0.47 -3.33,0.4 -4.13,-0.49 -0.7,-0.79 -0.78,-2.07 0.46,-3.18 0.83,-0.75 1.69,-1.07 2.35,-1.19 l -1.77,-2.9 c -0.66,0.12 -1.83,0.68 -2.82,1.56 -3.12,2.79 -2.93,6.19 -0.79,8.58 1.21,1.35 3.38,2.22 6.53,1.65 1.98,-0.32 3.14,-0.38 4.09,0.68 0.88,0.98 0.83,2.3 -0.53,3.52 -0.83,0.74 -2.07,1.42 -2.97,1.61 z"
     class="st0" /><path
     style="fill:#f9f9f9"
     inkscape:connector-curvature="0"
     id="path58"
     d="m 147.29001,156.22245 c -1.6,0.3 -2.16,0.26 -2.68,-0.32 -0.46,-0.51 -0.51,-1.34 0.3,-2.06 0.54,-0.48 1.09,-0.7 1.52,-0.77 l -1.15,-1.88 c -0.43,0.08 -1.19,0.44 -1.83,1.01 -2.02,1.81 -1.9,4.01 -0.51,5.57 0.78,0.88 2.19,1.44 4.24,1.07 1.29,-0.21 2.04,-0.25 2.66,0.44 0.57,0.64 0.54,1.49 -0.35,2.28 -0.53,0.48 -1.34,0.92 -1.93,1.04 l 1.18,1.87 c 0.49,-0.1 1.42,-0.57 2.2,-1.27 1.88,-1.69 2.15,-4.01 0.56,-5.78 -0.9,-1.02 -2.24,-1.58 -4.21,-1.2 z"
     class="st0" /><path
     style="fill:#f9f9f9"
     inkscape:connector-curvature="0"
     id="path60"
     d="m 122.47001,170.83245 c -1.61,-0.2 -2.14,-0.41 -2.46,-1.12 -0.28,-0.63 -0.08,-1.43 0.91,-1.88 0.66,-0.3 1.25,-0.33 1.68,-0.27 l -0.52,-2.14 c -0.43,-0.05 -1.26,0.06 -2.05,0.41 -2.48,1.11 -3.03,3.25 -2.18,5.15 0.48,1.07 1.65,2.04 3.71,2.31 1.29,0.19 2.02,0.38 2.4,1.23 0.35,0.78 0.06,1.58 -1.03,2.07 -0.65,0.29 -1.55,0.47 -2.15,0.41 l 0.56,2.14 c 0.5,0.06 1.53,-0.11 2.48,-0.54 2.31,-1.03 3.27,-3.16 2.3,-5.34 -0.55,-1.25 -1.66,-2.19 -3.65,-2.43 z"
     class="st0" /><path
     style="fill:#f9f9f9"
     inkscape:connector-curvature="0"
     id="path62"
     d="m 113.89001,173.65245 c -1.57,-0.43 -2.06,-0.72 -2.27,-1.46 -0.19,-0.66 0.13,-1.43 1.17,-1.72 0.7,-0.2 1.29,-0.14 1.71,-0.02 l -0.2,-2.19 c -0.42,-0.12 -1.26,-0.13 -2.09,0.11 -2.61,0.74 -3.47,2.77 -2.91,4.77 0.32,1.13 1.34,2.26 3.33,2.82 1.25,0.38 1.94,0.67 2.19,1.56 0.23,0.82 -0.17,1.58 -1.31,1.9 -0.69,0.19 -1.61,0.24 -2.19,0.09 l 0.24,2.19 c 0.49,0.13 1.53,0.11 2.53,-0.17 2.43,-0.69 3.69,-2.65 3.05,-4.95 -0.35,-1.31 -1.31,-2.4 -3.25,-2.93 z"
     class="st0" /><polygon
     transform="translate(-9.2299859,-11.837551)"
     style="fill:#f9f9f9"
     id="polygon64"
     points="117,192.46 113.7,192.97 113.17,189.5 116.08,189.05 115.76,186.98 112.85,187.43 112.39,184.49 115.47,184.01 115.13,181.85 109.56,182.71 111.54,195.52 117.33,194.62 "
     class="st0" /><path
     style="fill:#f9f9f9"
     inkscape:connector-curvature="0"
     id="path66"
     d="m 95.930014,178.12245 v -0.04 c 1.3,-0.64 1.95,-1.9 1.91,-3.29 -0.03,-1.11 -0.29,-1.97 -1.1,-2.67 -0.85,-0.74 -2.1,-0.91 -3.48,-0.88 -0.96,0.02 -1.96,0.14 -2.74,0.32 l 0.33,12.76 2.51,-0.06 -0.13,-5.17 0.38,-0.01 c 0.84,-0.02 1.26,0.42 1.52,2.03 0.23,1.43 0.56,2.73 0.73,3.08 l 2.63,-0.07 c -0.24,-0.46 -0.63,-2.06 -0.92,-3.49 -0.28,-1.37 -0.75,-2.17 -1.64,-2.51 z m -2.29,-0.97 -0.46,0.01 -0.1,-3.86 c 0.14,-0.06 0.38,-0.09 0.61,-0.09 1.13,0 1.58,0.77 1.61,1.88 0.03,1.13 -0.57,2.04 -1.66,2.06 z"
     class="st0" /><path
     style="fill:#f9f9f9"
     inkscape:connector-curvature="0"
     id="path68"
     d="m 82.710014,170.87245 c -1,-0.1 -1.93,-0.09 -2.57,-0.01 l -1.29,12.66 c 0.48,0.11 1.26,0.27 2.06,0.36 1.79,0.18 3.11,-0.1 4.07,-0.84 1.22,-0.89 2.08,-2.67 2.34,-5.28 0.25,-2.49 -0.14,-4.26 -1.14,-5.37 -0.75,-0.86 -1.85,-1.36 -3.47,-1.52 z m 2.02,6.53 c -0.36,3.55 -1.53,4.63 -2.74,4.51 -0.13,-0.01 -0.32,-0.03 -0.45,-0.08 l 0.91,-8.89 c 0.16,-0.04 0.33,-0.03 0.51,-0.01 1.52,0.15 2.04,1.82 1.77,4.47 z"
     class="st0" /><path
     style="fill:#f9f9f9"
     inkscape:connector-curvature="0"
     id="path70"
     d="m 72.840014,169.13245 c -0.94,-0.21 -1.93,-0.35 -2.74,-0.36 l -2.82,12.45 2.45,0.55 1.14,-5.04 0.37,0.08 c 0.82,0.18 1.12,0.72 0.98,2.34 -0.12,1.44 -0.13,2.78 -0.05,3.17 l 2.57,0.58 c -0.12,-0.51 -0.11,-2.15 -0.03,-3.61 0.07,-1.42 -0.19,-2.31 -0.97,-2.85 l 0.01,-0.04 c 1.42,-0.31 2.36,-1.36 2.66,-2.72 0.25,-1.09 0.2,-1.98 -0.41,-2.86 -0.65,-0.92 -1.81,-1.39 -3.16,-1.69 z m 1.03,4.22 c -0.25,1.1 -1.05,1.83 -2.12,1.59 l -0.45,-0.1 0.85,-3.76 c 0.15,-0.03 0.39,0.01 0.61,0.06 1.1,0.27 1.36,1.13 1.11,2.21 z"
     class="st0" /><rect
     style="fill:#f9f9f9;stroke-width:0.99997997"
     id="rect72"
     height="2.5199001"
     width="12.96"
     y="113.95392"
     x="-151.05324"
     transform="rotate(-71.59)"
     class="st0" /><path
     style="fill:#f9f9f9"
     inkscape:connector-curvature="0"
     id="path74"
     d="m 49.680014,174.76245 2.23,0.99 1.72,-2.47 2.13,0.95 -0.69,2.93 2.24,0.99 2.95,-12.87 -2.76,-1.22 z m 8.18,-7.93 c -0.23,0.83 -0.6,2.09 -0.81,2.86 l -0.7,2.66 -1.69,-0.75 1.53,-2.28 c 0.43,-0.63 1.15,-1.78 1.62,-2.51 z"
     class="st0" /><polygon
     transform="translate(-9.2299859,-11.837551)"
     style="fill:#f9f9f9"
     id="polygon76"
     points="61.82,173.5 59.64,172.23 57.02,176.72 54.75,175.39 57.37,170.91 55.19,169.63 48.66,180.83 50.84,182.1 53.57,177.41 55.84,178.74 53.11,183.42 55.29,184.7 "
     class="st0" /><path
     style="fill:#f9f9f9"
     inkscape:connector-curvature="0"
     id="path78"
     d="m 32.420014,150.98245 c -0.58,0.69 -1.01,1.62 -1.08,2.76 l -0.03,0.03 c -1.51,-0.2 -2.83,0.2 -3.84,1.4 -1.31,1.54 -1.33,3.63 0.39,5.09 0.83,0.7 1.85,1.07 2.79,1.04 -0.04,0.44 -0.06,0.72 -0.08,1.05 l 2.09,1.77 c 0.04,-1.21 0.09,-2.26 0.12,-2.95 1.32,-0.23 2.92,-1.19 4.19,-2.44 l -1.63,-1.38 c -0.67,0.73 -1.52,1.6 -2.39,1.95 0.02,-0.8 0.19,-2.31 0.3,-3.32 l 0.06,-0.07 c 2.26,0.24 3.22,-0.34 3.99,-1.24 1.13,-1.33 0.96,-2.98 -0.3,-4.05 -1.55,-1.31 -3.44,-0.98 -4.58,0.36 z m -1.59,8.55 c -0.5,0.07 -0.97,-0.03 -1.43,-0.41 -0.8,-0.68 -0.7,-1.84 0.03,-2.69 0.52,-0.61 1.19,-0.84 1.7,-0.89 -0.12,1.3 -0.26,2.91 -0.3,3.99 z m 4.77,-6.15 c -0.49,0.58 -1.15,0.88 -2.18,0.84 0.08,-0.77 0.29,-1.33 0.76,-1.89 0.52,-0.61 1.18,-0.9 1.65,-0.51 0.51,0.44 0.15,1.12 -0.23,1.56 z"
     class="st0" /><path
     style="fill:#f9f9f9"
     inkscape:connector-curvature="0"
     id="path80"
     d="m 143.64001,164.12245 c -0.96,-1.04 -1.78,-1.49 -2.71,-1.31 l -0.02,-0.03 c 0.78,-1.23 0.68,-2.64 -0.07,-3.8 -0.6,-0.94 -1.27,-1.53 -2.32,-1.71 -1.11,-0.19 -2.27,0.31 -3.43,1.06 -0.81,0.52 -1.6,1.13 -2.18,1.7 l 6.9,10.74 2.11,-1.36 -2.79,-4.35 0.32,-0.2 c 0.7,-0.45 1.3,-0.29 2.35,0.95 0.94,1.1 1.89,2.04 2.22,2.26 l 2.21,-1.42 c -0.45,-0.29 -1.61,-1.46 -2.59,-2.53 z m -5.18,-0.95 -0.38,0.25 -2.09,-3.25 c 0.09,-0.12 0.28,-0.27 0.47,-0.39 0.96,-0.58 1.75,-0.16 2.35,0.77 0.61,0.94 0.57,2.03 -0.35,2.62 z"
     class="st0" /><polygon
     transform="translate(-9.2299859,-11.837551)"
     style="fill:#f9f9f9"
     id="polygon82"
     points="144.41,182.79 141.45,184.32 139.84,181.2 142.46,179.85 141.49,177.98 138.87,179.34 137.5,176.69 140.27,175.26 139.26,173.32 134.26,175.91 140.21,187.42 145.41,184.73 "
     class="st0" /><path
     style="fill:#f9f9f9"
     inkscape:connector-curvature="0"
     id="path84"
     d="m 62.480014,160.14245 5.72,-19.52 -4.13,-2.14 -13.02,15.75 3.35,1.73 2.87,-3.65 3.19,1.65 -1.34,4.44 z m -3.46,-10.32 2.57,-3.37 c 0.72,-0.93 1.93,-2.63 2.73,-3.71 l 0.06,0.03 c -0.43,1.26 -1.12,3.17 -1.5,4.33 l -1.33,4.02 z"
     class="st0" /><path
     style="fill:#f9f9f9"
     inkscape:connector-curvature="0"
     id="path86"
     d="m 81.050014,159.54245 c 0.08,-2.19 -0.34,-3.56 -1.55,-4.38 l 0.01,-0.06 c 2.18,-0.5 3.6,-2.15 4.05,-4.24 0.36,-1.68 0.27,-3.06 -0.69,-4.39 -1.01,-1.42 -2.82,-2.12 -4.9,-2.56 -1.45,-0.31 -2.98,-0.49 -4.23,-0.5 l -4.08,19.25 3.78,0.8 1.65,-7.79 0.57,0.12 c 1.26,0.27 1.74,1.08 1.55,3.58 -0.16,2.22 -0.14,4.29 -0.01,4.88 l 3.97,0.84 c -0.19,-0.78 -0.2,-3.31 -0.12,-5.55 z m -4.64,-6.65 -0.69,-0.15 1.23,-5.82 c 0.23,-0.04 0.61,0.01 0.95,0.08 1.69,0.41 2.1,1.72 1.74,3.39 -0.36,1.7 -1.58,2.85 -3.23,2.5 z"
     class="st0" /><path
     style="fill:#f9f9f9"
     inkscape:connector-curvature="0"
     id="path88"
     d="m 44.400014,82.342449 c 0,-0.38 -0.31,-0.69 -0.69,-0.69 h -23.91 c -0.38,0 -0.69,0.31 -0.69,0.69 0,0.38 0.31,0.69 0.69,0.69 h 23.91 c 0.38,0 0.69,-0.31 0.69,-0.69 z"
     class="st0" /><path
     style="fill:#f9f9f9"
     inkscape:connector-curvature="0"
     id="path90"
     d="m 44.400014,95.532449 c 0,-0.38 -0.31,-0.69 -0.69,-0.69 h -23.91 c -0.38,0 -0.69,0.31 -0.69,0.69 0,0.38 0.31,0.69 0.69,0.69 h 23.91 c 0.38,0 0.69,-0.31 0.69,-0.69 z"
     class="st0" /><path
     style="fill:#f9f9f9"
     inkscape:connector-curvature="0"
     id="path92"
     d="m 162.10001,81.662449 h -23.91 c -0.38,0 -0.69,0.31 -0.69,0.69 0,0.38 0.31,0.69 0.69,0.69 h 23.91 c 0.38,0 0.69,-0.31 0.69,-0.69 0,-0.39 -0.31,-0.69 -0.69,-0.69 z"
     class="st0" /><path
     style="fill:#f9f9f9"
     inkscape:connector-curvature="0"
     id="path94"
     d="m 162.79001,95.532449 c 0,-0.38 -0.31,-0.69 -0.69,-0.69 h -23.91 c -0.38,0 -0.69,0.31 -0.69,0.69 0,0.38 0.31,0.69 0.69,0.69 h 23.91 c 0.38,0 0.69,-0.31 0.69,-0.69 z"
     class="st0" /><path
     style="fill:#f9f9f9"
     inkscape:connector-curvature="0"
     id="path96"
     d="m 89.310014,97.322449 c -0.66,5.240001 1.32,9.150001 1.64,9.790001 0.32,0.64 0.87,1.2 1.49,0.88 0.62,-0.31 0.37,-0.87 -0.01,-1.63 -1.93,-4.15 -1.21,-6.730001 -1.14,-7.130001 -0.96,-0.65 -1.98,-1.91 -1.98,-1.91 z"
     class="st0" /><path
     style="fill:#f9f9f9"
     inkscape:connector-curvature="0"
     id="path98"
     d="m 84.610014,58.522449 3.92,-1.29 -22.46,-35.49 c -0.07,-0.09 -0.23,-0.04 -0.17,0.09 2.86,6.28 15.11,33.12 16.06,35.02 1.06,2.09 2.65,1.67 2.65,1.67 z"
     class="st0" /><path
     style="fill:#f9f9f9"
     inkscape:connector-curvature="0"
     id="path100"
     d="m 105.38001,104.19245 c -0.05,2.62 0.8,5.6 3.06,7.75 0.32,0.31 8.74,9.09 27,10.4 -0.08,-0.54 -0.24,-1.53 -0.24,-1.53 0,0 -6.3,-0.27 -10.21,-2.37 -2.4,-1.28 -4.43,-3.91 -2.51,-6.25 2.97,-3.39 2.36,-8.89 -1.47,-12.550001 -1.4,-1.33 -3.04,-2.24 -4.73,-2.72 0.05,0 -4.81,-0.91 -7.96,-4.36 -1.57,-1.72 -2.82,-4.14 -2.72,-7.33 0.01,-0.46 -0.27,-0.93 -0.7,-1.18 -0.62,-0.36 -1.24,-0.7 -1.88,-1.09 10.99,-15.7 27.5,-39.31 27.82,-39.76 0.48,-0.67 0.3,-1.21 -0.36,-1.69 -0.66,-0.48 -5.05,-3.63 -6.2,-4.53 -1.04,-0.81 -1.41,-0.21 -1.76,0.26 -0.35,0.47 -21.89,32.33 -22.52,33.2 l -0.649996,0.89 c -1.01,1.42 1.009996,4.73 1.009996,4.73 0.91,1.5 0.64,3.5 0.38,3.88 -0.04,0.06 -0.26,0.33 -0.58,0.73 -1.489996,-1.55 -3.159996,-3.9 -5.129996,-7.87 -1.1,-2.61 -6.23,-14.89 -6.23,-14.89 l -3.65,1.25 c 0,0 -2.52,1.11 -4.02,-2.15 -1.3,-2.83 -12.88,-28.15 -15.93,-34.82 -0.11,-0.18 -0.4,-0.04 -0.32,0.17 1.15,4.18 5.36,16.61 20.39,46.12 0,0 3.01,4.64 4.55,6.73 1.15,1.57 4.93,3.68 8.65,7.49 -1.9,2.31 -4.35,5.3 -4.74,5.87 0,0 -1.29,1.83 -1.44,3.52 -1.82,-2.43 -4.63,-6.28 -7.85,-11.06 0.9,-0.9 1.67,-1.64 2.19,-2.15 0.66,-0.63 1.28,-1.38 2.48,-2.89 -0.08,-0.11 -1.85,-2.2 -3.58,-5.38 -0.9,2.37 -1.95,4.75 -3.27,7.14 -6.16,-9.44 -13.24,-21.58 -17.59,-33.34 -1.86,-4.71 -3.84,-4.51 -5.16,-4.11 -1.32,0.4 -3.09,1.97 -1.53,6.2 0,0 2.9,15.7 20.08,37.39 -1.81,2.03 -3.5,3.79 -5.5,5.07 -3.88,2.47 -7.42,3.03 -9.6,3.84 -5.01,1.84 -7.68,6.8 -5.99,10.990001 1.43,3.54 5.52,5.43 9.77,4.79 l -0.04,0.01 0.07,-0.02 c 0.32,-0.05 0.64,-0.11 0.97,-0.19 0.93,-0.15 5.27,-1.77 6.04,-0.35 0.34,0.61 0.74,0.97 1.5,1 1.15,0.04 1.89,-0.58 1.93,-1.7 0.03,-0.84 -0.51,-1.46 -1.26,-1.79 -1.38,-0.4 -0.66,-4.39 -0.79,-6.180001 -0.22,-4.47 1.41,-8.53 3.46,-11.48 0.41,-0.59 0.84,-1.17 1.28,-1.73 3.01,3.66 6.4,7.47 10.27,11.39 1.45,1.47 2.98,3.530001 4.55,2.06 1.52,-1.42 1.36,-2.4 -0.2,-4.55 0.03,-0.04 0.06,-0.07 0.08,-0.11 1.33,-1.89 3.64,-5.18 6.469996,-9.23 0.36,0.47 0.71,0.96 1.05,1.47 0.85,1.29 1.63,3.46 2.18,4.76 1.67,5.31 0.83,8.420001 1.08,12.250001 z m 3.79,-3.93 c 2.67,-2.640001 7.39,-2.340001 10.54,0.66 3.15,3 3.53,7.57 0.86,10.21 -2.67,2.64 -7.39,2.34 -10.54,-0.66 -3.15,-3.01 -3.54,-7.58 -0.86,-10.21 z m -4.04,-25.960001 c 0.35,0.25 1.09,1.33 2.1,-0.07 0.26,-0.37 20.1,-29.48 20.84,-30.54 0.42,-0.6 0.47,-0.84 0.16,-1.32 -0.31,-0.48 -1.99,-2.88 -1.99,-2.88 0,0 2.86,2.65 3.29,3.12 0.44,0.47 0.32,0.87 -0.03,1.37 -0.35,0.5 -21.58,30.86 -21.95,31.49 -0.71,1.21 -1.71,0.97 -2.12,0.54 -0.41,-0.44 -4.15,-3.41 -4.15,-3.41 0,0 3.5,1.45 3.85,1.7 z m -16.389996,-7.63 c 0.87,-0.33 1.83,0.02 2.29,0.76 l -3.45,1.3 c -0.17,-0.85 0.3,-1.74 1.16,-2.06 z m 1.37,3.4 c -0.87,0.33 -1.83,-0.02 -2.29,-0.76 l 3.45,-1.3 c 0.18,0.85 -0.29,1.73 -1.16,2.06 z m -28.57,-24.39 c -0.57,0.3 -1.28,0.08 -1.58,-0.49 -0.3,-0.57 -0.08,-1.28 0.49,-1.58 0.57,-0.3 1.28,-0.08 1.58,0.49 0.3,0.57 0.08,1.27 -0.49,1.58 z m 6.77,60.690001 c -3.89,1.48 -8.11,0.01 -9.42,-3.29 -1.31,-3.300001 0.78,-7.180001 4.67,-8.660001 3.89,-1.48 8.11,-0.01 9.42,3.29 1.31,3.300001 -0.78,7.180001 -4.67,8.660001 z m 23.31,-10.260001 c -0.49,0.26 -1.1,0.07 -1.36,-0.42 -0.26,-0.49 -0.07,-1.1 0.42,-1.36 0.49,-0.26 1.1,-0.07 1.36,0.42 0.27,0.49 0.08,1.1 -0.42,1.36 z"
     class="st0" /><path
     style="fill:#f9f9f9"
     inkscape:connector-curvature="0"
     id="path102"
     d="m 96.470014,57.992449 c 0.91,0.33 1.76,0.14 2.33,-0.84 1.639996,-2.8 14.809996,-27.15 19.069996,-35.02 0.09,-0.18 -0.18,-0.38 -0.3,-0.2 -5.33,7.35 -22.049996,30.5 -24.619996,34.69 0,0 2.61,1.03 3.52,1.37 z"
     class="st0" /><path
     style="fill:#f9f9f9"
     inkscape:connector-curvature="0"
     id="path104"
     d="m 95.880014,58.652449 c -0.87,-0.3 -3.5,-1.34 -3.5,-1.34 0,0 -0.45,0.67 -1.49,2.51 0.64,1.54 2.18,5.72 3.67,9.09 2.43,-3.35 4.75,-6.75 5.15,-7.38 14.889996,-28.03 18.089996,-36.56 18.889996,-38.84 0.06,-0.11 -0.08,-0.21 -0.13,-0.08 -2.57,4.71 -17.55,32.74 -18.649996,34.91 -1.21,2.39 -3.08,1.43 -3.94,1.13 z"
     class="st0" /><text
     x="137.97249"
     y="92.840134"
     font-size="10.906px"
     letter-spacing="0px"
     word-spacing="0px"
     style="font-size:10.90600014px;line-height:1.25;font-family:sans-serif;letter-spacing:0px;word-spacing:0px;fill:#f9f9f9;stroke-width:0.27263999"
     xml:space="preserve"
     id="text110"><tspan
       x="137.97249"
       y="92.840134"
       id="tspan108"
       style="fill:#f9f9f9;stroke-width:0.27263999">2019</tspan></text>
<text
     transform="scale(0.84159457,1.1882206)"
     x="55.558014"
     y="14.971889"
     font-size="20.173px"
     letter-spacing="0px"
     word-spacing="0px"
     style="font-size:20.17265129px;line-height:1.25;font-family:sans-serif;letter-spacing:0px;word-spacing:0px;fill:#f9f9f9;stroke-width:0.50432122"
     xml:space="preserve"
     id="text114"><tspan
       x="55.558014"
       y="14.971889"
       id="tspan112"
       style="fill:#f9f9f9;stroke-width:0.50432122">Art &amp; Taste</tspan></text>
</g></svg>