<?xml version="1.0" encoding="UTF-8" standalone="no"?>
<svg
   xmlns:dc="http://purl.org/dc/elements/1.1/"
   xmlns:cc="http://creativecommons.org/ns#"
   xmlns:rdf="http://www.w3.org/1999/02/22-rdf-syntax-ns#"
   xmlns:svg="http://www.w3.org/2000/svg"
   xmlns="http://www.w3.org/2000/svg"
   height="39.05476"
   width="29.299429"
   xml:space="preserve"
   viewBox="0 0 29.299429 39.05476"
   y="0px"
   x="0px"
   id="Layer_1"
   version="1.1"><metadata
   id="metadata43"><rdf:RDF><cc:Work
       rdf:about=""><dc:format>image/svg+xml</dc:format><dc:type
         rdf:resource="http://purl.org/dc/dcmitype/StillImage" /><dc:title></dc:title></cc:Work></rdf:RDF></metadata><defs
   id="defs41" />
















<g
   style="fill:#f9f9f9"
   transform="matrix(0.07627288,0,0,0.07627288,-4.8776217,-4.6870952e-6)"
   id="g884"><g
     style="fill:#f9f9f9"
     transform="translate(-1,-1)"
     id="g6">
	<g
   style="fill:#f9f9f9"
   id="g4">
		<path
   style="fill:#f9f9f9"
   d="M 447.778,139.092 C 439.185,79.154 391.347,41.326 385.869,37.161 351.514,5.016 311.68,20.291 292.642,34.678 c -0.495,-0.247 -0.947,-0.606 -1.391,-1.084 -4.497,-4.821 -5.163,-17.852 -4.77,-23.415 0.324,-4.693 -3.209,-8.781 -7.902,-9.114 -2.475,-0.179 -60.493,-3.413 -134.647,70.741 l -9.515,9.506 c -4.198,4.207 -10.018,6.187 -15.206,5.052 -1.664,-0.35 -2.534,-0.802 -2.586,-0.606 -0.017,-0.521 0.188,-3.712 5.973,-11.264 2.748,-3.576 2.236,-8.67 -1.169,-11.631 -3.388,-2.953 -8.508,-2.748 -11.674,0.452 -1.929,1.946 -46.985,48.375 -44.723,106.257 1.194,30.585 15.362,58.355 42.104,82.607 l -0.068,22.894 c 0,58.283 5.717,117.649 47.249,157.073 6.692,6.352 13.89,12.032 21.247,17.365 v 54.994 c 0,4.719 3.823,8.533 8.533,8.533 4.71,0 8.533,-3.814 8.533,-8.533 v -43.209 c 0.879,0.589 1.761,1.181 2.638,1.767 l 8.201,5.513 c 3.234,2.185 6.383,4.523 9.532,6.844 13.662,10.112 27.793,20.557 47.667,20.557 19.866,0 33.988,-10.445 47.659,-20.548 3.149,-2.33 6.306,-4.668 9.54,-6.852 l 8.183,-5.504 c 1.034,-0.692 2.075,-1.39 3.114,-2.086 v 43.52 c 0,4.719 3.823,8.533 8.533,8.533 4.71,0 8.533,-3.814 8.533,-8.533 v -55.329 c 7.196,-5.235 14.23,-10.811 20.78,-17.029 41.737,-39.62 47.488,-99.362 47.488,-158.037 v -22.774 c 27.457,-36.992 38.662,-74.754 33.28,-112.246 z M 82.09,169.01 c -1.126,-28.143 11.273,-53.931 22.528,-71.305 2.381,2.253 5.888,4.258 11.059,5.359 10.914,2.295 22.443,-1.306 30.814,-9.685 l 9.506,-9.506 c 52.753,-52.762 96.307,-63.275 113.485,-65.314 0.529,8.115 2.56,19.447 9.259,26.65 4.275,4.599 9.907,7.031 16.29,7.031 2.022,0 3.994,-0.734 5.538,-2.039 1.596,-1.348 39.578,-32.828 73.924,-0.299 0.247,0.239 0.529,0.461 0.802,0.666 0.469,0.358 47.778,35.985 55.612,91.093 3.673,25.873 -1.848,52.142 -16.409,78.372 V 197.31 c 0,-8.055 -1.579,-15.881 -4.693,-23.27 -11.213,-26.539 -42.581,-39.159 -71.458,-28.706 -11.733,4.25 -34.697,9.31 -77.449,9.31 -42.752,0 -65.715,-5.06 -77.449,-9.31 -28.86,-10.462 -60.245,2.185 -71.458,28.715 -3.115,7.364 -4.693,15.189 -4.693,23.236 l -0.091,30.717 C 91.38,209.949 82.941,190.177 82.09,169.01 Z m 315.342,105.1 c 0,54.861 -5.112,110.481 -42.172,145.656 -11.563,10.982 -25.353,20.198 -38.69,29.116 l -8.277,5.555 c -3.43,2.33 -6.776,4.804 -10.112,7.27 -11.972,8.841 -23.27,17.203 -37.513,17.203 -14.251,0 -25.557,-8.363 -37.513,-17.203 -3.345,-2.466 -6.69,-4.941 -10.112,-7.27 l -8.294,-5.564 c -5.254,-3.511 -10.575,-7.076 -15.807,-10.772 -0.033,-0.022 -0.064,-0.047 -0.096,-0.069 -8.009,-5.661 -15.801,-11.639 -22.779,-18.266 C 127.368,383.039 124.134,325.823 124.134,275.1 l 0.23,-77.79 c 0,-5.769 1.126,-11.366 3.345,-16.631 5.811,-13.739 19.772,-21.939 35.021,-21.939 4.915,0 9.958,0.853 14.916,2.645 13.013,4.702 38.025,10.325 83.251,10.325 45.226,0 70.238,-5.623 83.251,-10.325 20.326,-7.364 42.257,1.126 49.929,19.294 2.227,5.265 3.354,10.863 3.354,16.631 v 76.8 z"
   id="path2" />
	</g>
</g><g
     style="fill:#f9f9f9"
     id="g8">
</g><g
     style="fill:#f9f9f9"
     id="g10">
</g><g
     style="fill:#f9f9f9"
     id="g12">
</g><g
     style="fill:#f9f9f9"
     id="g14">
</g><g
     style="fill:#f9f9f9"
     id="g16">
</g><g
     style="fill:#f9f9f9"
     id="g18">
</g><g
     style="fill:#f9f9f9"
     id="g20">
</g><g
     style="fill:#f9f9f9"
     id="g22">
</g><g
     style="fill:#f9f9f9"
     id="g24">
</g><g
     style="fill:#f9f9f9"
     id="g26">
</g><g
     style="fill:#f9f9f9"
     id="g28">
</g><g
     style="fill:#f9f9f9"
     id="g30">
</g><g
     style="fill:#f9f9f9"
     id="g32">
</g><g
     style="fill:#f9f9f9"
     id="g34">
</g><g
     style="fill:#f9f9f9"
     id="g36">
</g><path
     style="opacity:1;fill:#f9f9f9;fill-opacity:1;stroke:none;stroke-width:0.52499998;stroke-miterlimit:4;stroke-dasharray:none;stroke-opacity:0.31343288"
     id="path850"
     d="m 193.09945,226.72914 a 11.933112,9.7634554 0 0 1 -11.09649,9.73943 11.933112,9.7634554 0 0 1 -12.65243,-8.37378 11.933112,9.7634554 0 0 1 9.3224,-10.91359 11.933112,9.7634554 0 0 1 13.95959,6.8435" /><path
     style="opacity:1;fill:#f9f9f9;fill-opacity:1;stroke:none;stroke-width:0.52499998;stroke-miterlimit:4;stroke-dasharray:none;stroke-opacity:0.31343288"
     id="path854"
     d="m 201.77809,231.06845 a 16.272427,16.272427 0 0 1 -15.13158,16.23239 16.272427,16.272427 0 0 1 -17.25331,-13.95632 16.272427,16.272427 0 0 1 12.71236,-18.18931 16.272427,16.272427 0 0 1 19.0358,11.40584" /><path
     d="m 345.7781,231.06845 a 16.272427,16.272427 0 0 1 -15.13158,16.23239 16.272427,16.272427 0 0 1 -17.2533,-13.95632 16.272427,16.272427 0 0 1 12.71235,-18.18931 16.272427,16.272427 0 0 1 19.03581,11.40584"
     id="path858"
     style="opacity:1;fill:#f9f9f9;fill-opacity:1;stroke:none;stroke-width:0.52499998;stroke-miterlimit:4;stroke-dasharray:none;stroke-opacity:0.31343288" /><path
     style="fill:#f9f9f9;stroke:#000000;stroke-width:1px;stroke-linecap:butt;stroke-linejoin:miter;stroke-opacity:1"
     d="m 195.26911,355.82372 c 43.61607,28.71112 85.80536,40.30077 123.67044,0"
     id="path860" /></g></svg>