<?xml version="1.0" encoding="UTF-8" standalone="no"?>
<!-- Created with Inkscape (http://www.inkscape.org/) -->

<svg
   xmlns:dc="http://purl.org/dc/elements/1.1/"
   xmlns:cc="http://creativecommons.org/ns#"
   xmlns:rdf="http://www.w3.org/1999/02/22-rdf-syntax-ns#"
   xmlns:svg="http://www.w3.org/2000/svg"
   xmlns="http://www.w3.org/2000/svg"
   xmlns:sodipodi="http://sodipodi.sourceforge.net/DTD/sodipodi-0.dtd"
   xmlns:inkscape="http://www.inkscape.org/namespaces/inkscape"
   width="18.20941mm"
   height="10.977414mm"
   viewBox="0 0 18.20941 10.977414"
   version="1.1"
   id="svg3120"
   inkscape:version="0.92.4 (5da689c313, 2019-01-14)"
   sodipodi:docname="oil-shower.svg">
  <defs
     id="defs3114" />
  <sodipodi:namedview
     id="base"
     pagecolor="#ffffff"
     bordercolor="#666666"
     borderopacity="1.0"
     inkscape:pageopacity="0.0"
     inkscape:pageshadow="2"
     inkscape:zoom="0.98994949"
     inkscape:cx="275.41396"
     inkscape:cy="-167.76978"
     inkscape:document-units="mm"
     inkscape:current-layer="layer1"
     showgrid="false"
     fit-margin-top="0"
     fit-margin-left="0"
     fit-margin-right="0"
     fit-margin-bottom="0"
     inkscape:window-width="1366"
     inkscape:window-height="705"
     inkscape:window-x="-4"
     inkscape:window-y="-4"
     inkscape:window-maximized="1" />
  <metadata
     id="metadata3117">
    <rdf:RDF>
      <cc:Work
         rdf:about="">
        <dc:format>image/svg+xml</dc:format>
        <dc:type
           rdf:resource="http://purl.org/dc/dcmitype/StillImage" />
        <dc:title></dc:title>
      </cc:Work>
    </rdf:RDF>
  </metadata>
  <g
     inkscape:label="Layer 1"
     inkscape:groupmode="layer"
     id="layer1"
     transform="translate(188.64932,-113.01415)">
    <g
       id="g3971"
       transform="matrix(0.13601091,0,0,0.13601091,-209.97868,81.192149)"
       style="fill:#ffffff">
      <g
         transform="matrix(0.35277777,0,0,-0.35277777,163.63094,283.58331)"
         id="g1243"
         style="fill:#ffffff">
        <path
           inkscape:connector-curvature="0"
           id="path1245"
           style="fill:#ffffff;fill-opacity:1;fill-rule:nonzero;stroke:none"
           d="m 0,0 c 0,-5.33 -4.321,-9.651 -9.652,-9.651 -5.329,0 -9.652,4.321 -9.652,9.651 v 38.608 c 0,5.331 4.323,9.653 9.652,9.653 5.331,0 9.652,-4.322 9.652,-9.653 z" />
      </g>
      <g
         transform="matrix(0.35277777,0,0,-0.35277777,188.06013,287.69057)"
         id="g1247"
         style="fill:#ffffff">
        <path
           inkscape:connector-curvature="0"
           id="path1249"
           style="fill:#ffffff;fill-opacity:1;fill-rule:nonzero;stroke:none"
           d="m 0,0 c 0,3.131 -2.537,5.669 -5.668,5.669 h -77.215 c -3.13,0 -5.669,-2.538 -5.669,-5.669 0,-3.131 2.539,-5.669 5.669,-5.669 H -5.668 C -2.537,-5.669 0,-3.131 0,0" />
      </g>
      <g
         transform="matrix(0.35277777,0,0,-0.35277777,177.35879,290.7174)"
         id="g1251"
         style="fill:#ffffff">
        <path
           inkscape:connector-curvature="0"
           id="path1253"
           style="fill:#ffffff;fill-opacity:1;fill-rule:nonzero;stroke:none"
           d="m 0,0 c 0,-1.605 -1.302,-2.91 -2.911,-2.91 h -15.933 c -1.606,0 -2.911,1.305 -2.911,2.91 0,1.609 1.305,2.911 2.911,2.911 H -2.911 C -1.302,2.911 0,1.609 0,0" />
      </g>
      <g
         transform="matrix(0.35277777,0,0,-0.35277777,174.44044,311.05516)"
         id="g1255"
         style="fill:#ffffff">
        <path
           inkscape:connector-curvature="0"
           id="path1257"
           style="fill:#ffffff;fill-opacity:1;fill-rule:nonzero;stroke:none"
           d="m 0,0 c 0,-1.946 -1.578,-3.523 -3.524,-3.523 -1.946,0 -3.524,1.577 -3.524,3.523 v 51.217 c 0,1.945 1.578,3.523 3.524,3.523 C -1.578,54.74 0,53.162 0,51.217 Z" />
      </g>
      <g
         transform="matrix(0.35277777,0,0,-0.35277777,182.2231,313.00064)"
         id="g1259"
         style="fill:#ffffff">
        <path
           inkscape:connector-curvature="0"
           id="path1261"
           style="fill:#ffffff;fill-opacity:1;fill-rule:nonzero;stroke:none"
           d="m 0,0 c 0,2.624 -2.125,4.749 -4.749,4.749 h -43.204 c -2.622,0 -4.749,-2.125 -4.749,-4.749 0,-2.623 2.127,-4.75 4.749,-4.75 H -4.749 C -2.125,-4.75 0,-2.623 0,0" />
      </g>
      <g
         transform="matrix(0.35277777,0,0,-0.35277777,185.14177,241.74951)"
         id="g1263"
         style="fill:#ffffff">
        <path
           inkscape:connector-curvature="0"
           id="path1265"
           style="fill:#ffffff;fill-opacity:1;fill-rule:nonzero;stroke:none"
           d="m 0,0 c 0,12.184 -9.877,22.062 -22.062,22.062 -12.183,0 -22.061,-9.878 -22.061,-22.062 0,-12.186 9.878,-22.062 22.061,-22.062 C -9.877,-22.062 0,-12.186 0,0" />
      </g>
      <g
         transform="matrix(0.35277777,0,0,-0.35277777,198.28102,288.47363)"
         id="g1267"
         style="fill:#ffffff">
        <path
           inkscape:connector-curvature="0"
           id="path1269"
           style="fill:#ffffff;fill-opacity:1;fill-rule:nonzero;stroke:none"
           d="m 0,0 c 4.407,-2.796 5.578,-8.845 2.616,-13.515 -2.961,-4.667 -8.934,-6.183 -13.341,-3.39 l -47.218,29.956 c -4.407,2.796 -5.579,8.845 -2.617,13.513 2.96,4.669 8.935,6.186 13.34,3.39 z" />
      </g>
      <g
         transform="matrix(0.35277777,0,0,-0.35277777,203.62317,308.95918)"
         id="g1271"
         style="fill:#ffffff">
        <path
           inkscape:connector-curvature="0"
           id="path1273"
           style="fill:#ffffff;fill-opacity:1;fill-rule:nonzero;stroke:none"
           d="m 0,0 c 0.99,-4.848 -2.599,-9.67 -8.017,-10.776 -5.416,-1.108 -10.608,1.926 -11.597,6.773 l -10.604,51.941 c -0.99,4.846 2.6,9.672 8.017,10.779 5.416,1.104 10.608,-1.928 11.598,-6.775 z" />
      </g>
      <g
         transform="matrix(0.35277777,0,0,-0.35277777,207.79656,260.33613)"
         id="g1275"
         style="fill:#ffffff">
        <path
           inkscape:connector-curvature="0"
           id="path1277"
           style="fill:#ffffff;fill-opacity:1;fill-rule:nonzero;stroke:none"
           d="m 0,0 c 0.414,4.268 -2.709,8.062 -6.976,8.475 l -29.991,2.909 c -4.267,0.414 -8.061,-2.708 -8.475,-6.977 -0.413,-4.268 2.71,-8.062 6.977,-8.474 L -8.476,-6.975 C -4.208,-7.39 -0.415,-4.268 0,0" />
      </g>
      <g
         transform="matrix(0.35277777,0,0,-0.35277777,195.89511,259.26334)"
         id="g1279"
         style="fill:#ffffff">
        <path
           inkscape:connector-curvature="0"
           id="path1281"
           style="fill:#ffffff;fill-opacity:1;fill-rule:nonzero;stroke:none"
           d="m 0,0 c 0.991,4.171 -1.586,8.356 -5.756,9.348 l -29.313,6.969 c -4.172,0.993 -8.356,-1.584 -9.348,-5.756 -0.992,-4.17 1.586,-8.355 5.756,-9.346 L -9.348,-5.757 C -5.177,-6.746 -0.993,-4.172 0,0" />
      </g>
      <g
         transform="matrix(0.35277777,0,0,-0.35277777,201.24777,285.56356)"
         id="g1283"
         style="fill:#ffffff">
        <path
           inkscape:connector-curvature="0"
           id="path1285"
           style="fill:#ffffff;fill-opacity:1;fill-rule:nonzero;stroke:none"
           d="m 0,0 -11.031,30.028 c 0,0 -39.833,15.935 -35.543,34.319 4.29,18.383 -2.406,38.482 -26,33.849 -33.291,-6.539 -35.282,-84.1 -35.282,-84.1 0,0 9.805,-25.739 107.856,-14.096" />
      </g>
      <g
         transform="matrix(0.35277777,0,0,-0.35277777,163.37602,280.55609)"
         id="g1287"
         style="fill:#ffffff">
        <path
           inkscape:connector-curvature="0"
           id="path1289"
           style="fill:#ffffff;fill-opacity:1;fill-rule:nonzero;stroke:none"
           d="m 0,0 c 0.602,-1.256 9.131,-16.716 61.61,-16.718 h 0.012 c 13.264,0 28.415,0.991 45.043,2.946 L 95.929,15.453 C 92.478,16.86 56.07,32.171 60.292,50.266 c 2.518,10.791 1.071,20.952 -3.872,27.18 -3.544,4.466 -8.634,6.731 -15.131,6.731 -2.009,0 -4.166,-0.225 -6.414,-0.665 C 2.933,77.237 0.108,3.346 0,0 M 61.622,-17.718 H 61.61 C 6.32,-17.715 -0.699,-0.989 -0.971,-0.277 l -0.035,0.092 0.003,0.099 c 0.082,3.184 2.385,78.037 35.686,84.578 9.803,1.926 17.693,-0.341 22.521,-6.425 5.13,-6.464 6.649,-16.943 4.062,-28.028 C 57.123,32.282 96.114,16.456 96.508,16.298 l 0.207,-0.082 11.326,-30.832 -0.629,-0.074 c -16.913,-2.009 -32.32,-3.028 -45.79,-3.028" />
      </g>
      <g
         transform="matrix(0.35277777,0,0,-0.35277777,226.25573,269.35229)"
         id="g1291"
         style="fill:#ffffff">
        <path
           inkscape:connector-curvature="0"
           id="path1293"
           style="fill:#ffffff;fill-opacity:1;fill-rule:nonzero;stroke:none"
           d="m 0,0 c -3.876,-3.561 -3.932,-9.396 -0.131,-13.026 0.75,-0.717 15.866,-14.779 44.553,-14.779 5.962,0 12.513,0.602 19.64,2.066 5.304,1.085 8.654,5.997 7.498,10.964 -1.159,4.974 -6.398,8.111 -11.696,7.031 C 29.688,-13.927 14.605,-0.76 13.823,-0.054 10.011,3.51 3.847,3.54 0,0" />
      </g>
      <g
         transform="matrix(0.35277777,0,0,-0.35277777,211.70982,269.75847)"
         id="g1295"
         style="fill:#ffffff">
        <path
           inkscape:connector-curvature="0"
           id="path1297"
           style="fill:#ffffff;fill-opacity:1;fill-rule:nonzero;stroke:none"
           d="M 0,0 C 10.259,-6.198 23.939,-3.436 30.554,6.183 37.173,15.798 34.216,28.617 23.96,34.818 13.702,41.021 0.015,38.252 -6.6,28.639 -7.385,27.499 -8.026,26.31 -8.544,25.097 -8.785,23.521 -9.222,22 -9.848,20.562 -11.13,12.733 -7.561,4.57 0,0" />
      </g>
      <g
         transform="matrix(0.35277777,0,0,-0.35277777,288.04522,293.54858)"
         id="g1299"
         style="fill:#ffffff">
        <path
           inkscape:connector-curvature="0"
           id="path1301"
           style="fill:#ffffff;fill-opacity:1;fill-rule:nonzero;stroke:none"
           d="m 0,0 -41.4,15.671 c -1.436,0.538 -2.969,0.822 -4.509,0.822 h -10.547 v 2.149 c 0,1.099 -0.308,2.122 -0.812,3.038 l 39.029,-9.982 c 1.033,-0.262 2.071,-0.392 3.094,-0.392 5.144,0 9.859,3.208 11.28,8.082 1.704,5.844 -1.973,11.878 -8.21,13.471 L -63.49,46.013 c -1.022,0.258 -2.022,0.388 -3.137,0.383 l -35.051,-0.16 c -1.631,-3.617 -5.045,-6.464 -9.435,-7.366 -5.778,-1.186 -11.661,-1.79 -17.496,-1.79 -28.452,0 -47.837,14.26 -48.646,14.867 -2.789,2.085 -4.545,5.061 -4.941,8.381 -0.406,3.322 0.597,6.595 2.825,9.209 2.549,3.002 6.364,4.719 10.454,4.719 2.989,0 5.926,-0.958 8.277,-2.695 0.391,-0.286 8.001,-5.734 20.096,-8.212 l -21.586,13.044 c -0.013,0.007 -0.029,0.021 -0.043,0.029 -0.047,0.023 -0.094,0.035 -0.14,0.06 -2.475,1.367 -5.207,2.005 -8.065,2.087 -0.115,0.004 -0.214,0.027 -0.322,0.04 -5.256,-0.113 -10.421,-2.539 -13.976,-5.689 0,0 -1.847,-1.481 -3.146,-3.457 -1.24,-1.896 -2.207,-4.252 -2.207,-4.252 l -0.033,-0.056 c -2.498,-6.782 -1.695,-16.096 5.945,-20.717 l 41.009,-24.785 c 0.482,-0.297 0.983,-0.561 1.478,-0.791 0,-0.075 -0.023,-0.145 -0.023,-0.22 v -2.144 h -11.664 l -54.552,35.481 c 0.271,0.278 0.529,0.571 0.753,0.9 2.002,2.999 1.033,6.956 -2.17,8.835 l -18.572,10.9 c -3.117,1.833 -7.188,1.005 -9.253,-1.819 -5.253,2.408 -11.722,0.972 -15.156,-3.666 -3.791,-5.12 -2.435,-12.153 3.03,-15.705 l 85.291,-55.487 c 2.017,-1.316 4.411,-2.017 6.863,-2.017 h 15.902 c 0.804,-2.031 2.626,-3.587 4.88,-4.148 -2.556,-0.977 -4.429,-4.098 -4.429,-7.804 v -21.903 c 0,-3.755 1.923,-6.908 4.533,-7.838 -0.526,-0.809 -0.855,-1.849 -0.855,-3 0,-2.544 1.553,-4.605 3.472,-4.605 h 8.578 c 1.919,0 3.473,2.061 3.473,4.605 0,1.017 -0.256,1.948 -0.677,2.71 h 29.544 c -0.421,-0.762 -0.677,-1.693 -0.677,-2.71 0,-2.544 1.556,-4.605 3.473,-4.605 h 8.58 c 1.917,0 3.473,2.061 3.473,4.605 0,1.062 -0.283,2.028 -0.738,2.807 2.957,0.577 5.232,3.947 5.232,8.031 v 21.903 c 0,3.445 -1.62,6.384 -3.901,7.566 h 13.597 c 3.077,0 5.682,1.831 6.698,4.386 h 8.675 l 39.23,-14.853 c 1.478,-0.556 3.005,-0.82 4.504,-0.82 4.769,0 9.279,2.671 11.169,7.062 C 9.146,-8.911 6.164,-2.332 0,0" />
      </g>
      <g
         transform="matrix(0.35277777,0,0,-0.35277777,222.55809,277.93438)"
         id="g1303"
         style="fill:#ffffff">
        <path
           inkscape:connector-curvature="0"
           id="path1305"
           style="fill:#ffffff;fill-opacity:1;fill-rule:nonzero;stroke:none"
           d="m 0,0 68.841,-42.463 c 0,0 35.752,24.499 33.911,44.525 l -2.453,-0.198 c 0,0 3.064,-17.363 -31.458,-42.08 0,0 -74.798,47.403 -75.276,49.409 z" />
      </g>
    </g>
  </g>
</svg>
