<?xml version="1.0" encoding="UTF-8" standalone="no"?>
<!-- Created with Inkscape (http://www.inkscape.org/) -->

<svg
   xmlns:dc="http://purl.org/dc/elements/1.1/"
   xmlns:cc="http://creativecommons.org/ns#"
   xmlns:rdf="http://www.w3.org/1999/02/22-rdf-syntax-ns#"
   xmlns:svg="http://www.w3.org/2000/svg"
   xmlns="http://www.w3.org/2000/svg"
   xmlns:sodipodi="http://sodipodi.sourceforge.net/DTD/sodipodi-0.dtd"
   xmlns:inkscape="http://www.inkscape.org/namespaces/inkscape"
   width="23.504938"
   height="22.64015"
   viewBox="0 0 6.2190152 5.9902065"
   version="1.1"
   id="svg864"
   inkscape:version="0.92.4 (5da689c313, 2019-01-14)"
   sodipodi:docname="snap.svg">
  <defs
     id="defs858" />
  <sodipodi:namedview
     id="base"
     pagecolor="#ffffff"
     bordercolor="#666666"
     borderopacity="1.0"
     inkscape:pageopacity="0.0"
     inkscape:pageshadow="2"
     inkscape:zoom="1.4"
     inkscape:cx="-136.78772"
     inkscape:cy="-68.646851"
     inkscape:document-units="px"
     inkscape:current-layer="layer1"
     showgrid="false"
     fit-margin-top="1"
     fit-margin-left="1"
     fit-margin-right="1"
     fit-margin-bottom="1"
     inkscape:window-width="1366"
     inkscape:window-height="705"
     inkscape:window-x="-4"
     inkscape:window-y="-4"
     inkscape:window-maximized="1"
     units="px" />
  <metadata
     id="metadata861">
    <rdf:RDF>
      <cc:Work
         rdf:about="">
        <dc:format>image/svg+xml</dc:format>
        <dc:type
           rdf:resource="http://purl.org/dc/dcmitype/StillImage" />
        <dc:title></dc:title>
      </cc:Work>
    </rdf:RDF>
  </metadata>
  <g
     inkscape:label="Layer 1"
     inkscape:groupmode="layer"
     id="layer1"
     transform="translate(-35.966558,-102.00175)">
    <path
       inkscape:connector-curvature="0"
       style="fill:#ff9955;fill-opacity:1;stroke-width:0.11325733"
       d="m 39.112033,107.7272 c -0.01613,0 -0.03151,-4.4e-4 -0.04322,-0.002 -0.0093,0.001 -0.01888,0.002 -0.02848,0.002 -0.3388,0 -0.565333,-0.16371 -0.765241,-0.30826 -0.143286,-0.10345 -0.278418,-0.20112 -0.436727,-0.22803 -0.07775,-0.0132 -0.155092,-0.0199 -0.229822,-0.0199 -0.134649,0 -0.241063,0.0213 -0.31875,0.0369 -0.04781,0.01 -0.08903,0.0177 -0.120895,0.0177 -0.03337,0 -0.07391,-0.008 -0.09081,-0.0665 -0.01339,-0.0465 -0.023,-0.0916 -0.03227,-0.13499 -0.02319,-0.10845 -0.04002,-0.17464 -0.07975,-0.18092 -0.42493,-0.067 -0.676003,-0.16573 -0.726013,-0.28529 -0.0052,-0.0125 -0.0082,-0.0252 -0.0088,-0.0377 -0.002,-0.0356 0.02266,-0.0669 0.05703,-0.0727 0.33746,-0.0568 0.637511,-0.2391 0.891877,-0.54202 0.19704,-0.23451 0.293802,-0.45859 0.304188,-0.48333 4.65e-4,-0.001 10e-4,-0.002 0.0015,-0.004 0.04903,-0.10168 0.05878,-0.18955 0.02908,-0.26108 -0.05476,-0.13198 -0.236092,-0.19078 -0.356064,-0.22969 -0.02984,-0.01 -0.05806,-0.0187 -0.08054,-0.0279 -0.106352,-0.043 -0.281257,-0.13366 -0.257956,-0.25887 0.01697,-0.0913 0.13513,-0.1549 0.230624,-0.1549 0.02652,0 0.05001,0.005 0.06979,0.0143 0.107907,0.0517 0.204983,0.0779 0.288474,0.0779 0.103826,0 0.153973,-0.0404 0.166101,-0.0519 -0.003,-0.0566 -0.0066,-0.11646 -0.01018,-0.17307 0,-7e-5 -2.25e-4,-0.001 -2.25e-4,-0.001 -0.02437,-0.39627 -0.05477,-0.88941 0.06865,-1.1722 0.36938,-0.84651 1.152732,-0.91233 1.383944,-0.91233 0.0062,0 0.10078,-0.001 0.10078,-0.001 0.0042,-7e-5 0.0089,-9e-5 0.01371,-9e-5 0.231846,0 1.016828,0.0659 1.386434,0.91291 0.123413,0.28298 0.09298,0.77654 0.06854,1.17322 l -0.0012,0.019 c -0.0034,0.0539 -0.0065,0.10484 -0.0091,0.15426 0.01141,0.0107 0.05731,0.0478 0.150668,0.0516 0.07959,-0.003 0.171054,-0.0292 0.271772,-0.0774 0.03114,-0.0149 0.06561,-0.018 0.08902,-0.018 0.03538,0 0.07138,0.007 0.101384,0.0198 l 0.0016,10e-4 c 0.08547,0.031 0.141441,0.093 0.142649,0.15807 0.001,0.0607 -0.04305,0.15139 -0.260069,0.239 -0.02223,0.009 -0.05059,0.0182 -0.08054,0.0279 -0.120076,0.039 -0.301262,0.0977 -0.356015,0.22963 -0.02975,0.0715 -0.01996,0.15937 0.02908,0.26102 5.7e-4,0.001 0.001,0.002 0.0015,0.004 0.0151,0.0362 0.380598,0.88799 1.19607,1.0253 0.03435,0.006 0.05901,0.0371 0.05705,0.0727 -8.29e-4,0.0127 -0.0038,0.0256 -0.009,0.038 -0.04966,0.11889 -0.300717,0.21746 -0.725771,0.28456 -0.0399,0.006 -0.0567,0.0722 -0.07968,0.18009 -0.0095,0.0446 -0.01919,0.0882 -0.03241,0.13413 -0.01237,0.0432 -0.03988,0.0643 -0.08406,0.0643 h -0.0067 c -0.02877,0 -0.06952,-0.005 -0.120925,-0.0156 -0.08984,-0.0179 -0.190609,-0.0345 -0.318746,-0.0345 -0.07471,0 -0.152045,0.007 -0.229885,0.0198 -0.158147,0.0269 -0.293262,0.12443 -0.436288,0.22777 -0.200303,0.14475 -0.426911,0.30848 -0.765682,0.30848"
       id="path5" />
  </g>
</svg>
