<?xml version="1.0" encoding="UTF-8" standalone="no"?>
<svg
   xmlns:dc="http://purl.org/dc/elements/1.1/"
   xmlns:cc="http://creativecommons.org/ns#"
   xmlns:rdf="http://www.w3.org/1999/02/22-rdf-syntax-ns#"
   xmlns:svg="http://www.w3.org/2000/svg"
   xmlns="http://www.w3.org/2000/svg"
   xmlns:sodipodi="http://sodipodi.sourceforge.net/DTD/sodipodi-0.dtd"
   xmlns:inkscape="http://www.inkscape.org/namespaces/inkscape"
   id="svg864"
   version="1.1"
   viewBox="0 0 6.0557833 5.4156857"
   height="20.468733"
   width="22.888"
   sodipodi:docname="twitter.svg"
   inkscape:version="0.92.4 (5da689c313, 2019-01-14)">
  <sodipodi:namedview
     pagecolor="#ffffff"
     bordercolor="#666666"
     borderopacity="1"
     objecttolerance="10"
     gridtolerance="10"
     guidetolerance="10"
     inkscape:pageopacity="0"
     inkscape:pageshadow="2"
     inkscape:window-width="1366"
     inkscape:window-height="705"
     id="namedview7"
     showgrid="false"
     fit-margin-top="0"
     fit-margin-left="0"
     fit-margin-right="0"
     fit-margin-bottom="0"
     units="px"
     inkscape:zoom="2.0186655"
     inkscape:cx="25.395629"
     inkscape:cy="-0.16854298"
     inkscape:window-x="-4"
     inkscape:window-y="-4"
     inkscape:window-maximized="1"
     inkscape:current-layer="svg864" />
  <defs
     id="defs858" />
  <metadata
     id="metadata861">
    <rdf:RDF>
      <cc:Work
         rdf:about="">
        <dc:format>image/svg+xml</dc:format>
        <dc:type
           rdf:resource="http://purl.org/dc/dcmitype/StillImage" />
        <dc:title></dc:title>
      </cc:Work>
    </rdf:RDF>
  </metadata>
  <g
     transform="matrix(0.45062909,0,0,0.49591647,-15.708096,-50.482164)"
     id="layer1">
    <path
       d="m 48.29666,103.08823 c -0.49419,0.21932 -1.02564,0.36754 -1.58323,0.43432 0.56909,-0.34135 1.00607,-0.8816 1.21192,-1.52522 -0.53262,0.31605 -1.12246,0.5453 -1.75074,0.66887 -0.50264,-0.53567 -1.2192,-0.8705 -2.01214,-0.8705 -1.52267,0 -2.75681,1.23424 -2.75681,2.75681 0,0.21616 0.0242,0.42663 0.0714,0.62828 -2.29133,-0.11482 -4.32274,-1.21271 -5.68252,-2.88048 -0.23732,0.40699 -0.37326,0.8805 -0.37326,1.38583 0,0.9566 0.48651,1.80028 1.22648,2.29486 -0.45191,-0.0141 -0.87708,-0.1382 -1.24879,-0.34483 -5.3e-4,0.0116 -5.3e-4,0.0231 -5.3e-4,0.0346 0,1.33598 0.95042,2.44999 2.2115,2.70343 -0.23114,0.063 -0.47463,0.0963 -0.72609,0.0963 -0.17783,0 -0.35025,-0.0168 -0.51887,-0.0491 0.35106,1.09523 1.36902,1.8924 2.57563,1.91471 -0.94431,0.73957 -2.13286,1.18008 -3.42461,1.18008 -0.22238,0 -0.44199,-0.0131 -0.65785,-0.0384 1.22058,0.78221 2.66952,1.23847 4.2266,1.23847 5.07085,0 7.84349,-4.20075 7.84349,-7.84418 0,-0.11948 -0.003,-0.23813 -0.008,-0.35636 0.53842,-0.38901 1.00577,-0.87444 1.3756,-1.42742"
       id="path22"
       style="fill:#ff9955;fill-opacity:0.99004977;stroke-width:0.26458332"
       inkscape:connector-curvature="0" />
  </g>
</svg>
